<svg xmlns="http://www.w3.org/2000/svg" width="235.67" height="220.418" viewBox="0 0 235.67 220.418">
  <g id="undraw_time_management_re_tk5w" transform="translate(0 -0.004)">
    <path id="Path_533" data-name="Path 533" d="M833.187,592.607l10.572,1.652a34.526,34.526,0,0,0,7.187-14.977c-7.731,6.328-19.487,2.965-28.861,6.42a20.767,20.767,0,0,0-12.424,13.025l-5.167,5.559a34.8,34.8,0,0,0,29.093-1.6,33.615,33.615,0,0,0,6.85-4.918C836.738,595.438,833.187,592.607,833.187,592.607Z" transform="translate(-615.333 -423.977)" fill="#f2f2f2"/>
    <path id="Path_534" data-name="Path 534" d="M837.774,531.954l10.2-3.236a34.526,34.526,0,0,0-.247-16.61c-4.1,9.112-16.119,11.345-22.968,18.618a20.767,20.767,0,0,0-5.311,17.2L817.3,555.2A34.8,34.8,0,0,0,842.627,540.8a33.616,33.616,0,0,0,3.938-7.457C842.215,532.9,837.774,531.954,837.774,531.954Z" transform="translate(-623.673 -380.232)" fill="#f2f2f2"/>
    <path id="Path_535" data-name="Path 535" d="M497.835,659.85a.414.414,0,0,1-.415.415H262.58a.415.415,0,1,1,0-.83H497.42a.414.414,0,0,1,.415.415Z" transform="translate(-262.165 -476.173)" fill="#ccc"/>
    <circle id="Ellipse_48" data-name="Ellipse 48" cx="74.991" cy="74.991" r="74.991" transform="translate(22.322 16)" fill="#e6e6e6"/>
    <path id="Path_536" data-name="Path 536" d="M485.217,274.419a64.438,64.438,0,0,1-26.044,51.8c-.541.4-1.092.8-1.646,1.182a64.538,64.538,0,0,1-73.672,0c-.555-.384-1.106-.778-1.646-1.182a64.534,64.534,0,0,1,0-103.6c.541-.4,1.092-.8,1.646-1.182a64.538,64.538,0,0,1,73.672,0c.555.384,1.106.778,1.646,1.182A64.438,64.438,0,0,1,485.217,274.419Z" transform="translate(-323.377 -183.428)" fill="#fff"/>
    <circle id="Ellipse_49" data-name="Ellipse 49" cx="58.946" cy="58.946" r="58.946" transform="translate(38.367 32.045)" fill="#273fdb"/>
    <path id="Path_537" data-name="Path 537" d="M531.967,226.365c-.894,0-1.782.023-2.666.063a58.945,58.945,0,0,1-2.5,117.6c1.7.148,3.422.228,5.162.228a58.946,58.946,0,1,0,0-117.893Z" transform="translate(-434.5 -194.155)" opacity="0.2"/>
    <path id="Path_538" data-name="Path 538" d="M538.081,213.892a1.922,1.922,0,0,0-1.918,1.918v8.371a1.918,1.918,0,1,0,3.837,0V215.81A1.922,1.922,0,0,0,538.081,213.892Z" transform="translate(-440.594 -186.033)" fill="#fff"/>
    <path id="Path_539" data-name="Path 539" d="M635.809,244.167c-.541-.4-1.092-.8-1.646-1.182a1.917,1.917,0,0,0-1.709.834l-4.712,6.917a1.918,1.918,0,1,0,3.171,2.159l4.712-6.917A1.906,1.906,0,0,0,635.809,244.167Z" transform="translate(-500.014 -204.975)" fill="#fff"/>
    <path id="Path_540" data-name="Path 540" d="M691.493,334.57a1.916,1.916,0,0,0-2.5-1.053l-7.757,3.15a1.918,1.918,0,0,0,1.444,3.554l7.757-3.15a1.923,1.923,0,0,0,1.053-2.5Z" transform="translate(-534.289 -263.841)" fill="#fff"/>
    <path id="Path_541" data-name="Path 541" d="M438.625,250.735l-4.712-6.917a1.917,1.917,0,0,0-1.709-.834c-.555.384-1.106.778-1.646,1.182a1.906,1.906,0,0,0,.185,1.81l4.712,6.917a1.918,1.918,0,0,0,3.171-2.159Z" transform="translate(-371.727 -204.975)" fill="#fff"/>
    <path id="Path_542" data-name="Path 542" d="M379.44,336.667l-7.757-3.15a1.918,1.918,0,1,0-1.444,3.554l7.757,3.15a1.918,1.918,0,0,0,1.444-3.554Z" transform="translate(-331.764 -263.841)" fill="#fff"/>
    <path id="Path_543" data-name="Path 543" d="M538.081,540.892a1.922,1.922,0,0,0-1.918,1.918v8.371a1.918,1.918,0,1,0,3.837,0V542.81A1.922,1.922,0,0,0,538.081,540.892Z" transform="translate(-440.594 -398.977)" fill="#fff"/>
    <path id="Path_544" data-name="Path 544" d="M635.624,523.733l-4.712-6.917a1.918,1.918,0,1,0-3.171,2.159l4.712,6.917a1.917,1.917,0,0,0,1.709.834c.555-.384,1.106-.778,1.646-1.182a1.906,1.906,0,0,0-.185-1.81Z" transform="translate(-500.014 -382.753)" fill="#fff"/>
    <path id="Path_545" data-name="Path 545" d="M690.44,439.667l-7.757-3.15a1.918,1.918,0,0,0-1.444,3.554l7.757,3.15a1.918,1.918,0,1,0,1.444-3.554Z" transform="translate(-534.289 -330.916)" fill="#fff"/>
    <path id="Path_546" data-name="Path 546" d="M438.12,516.311a1.918,1.918,0,0,0-2.665.506l-4.712,6.917a1.906,1.906,0,0,0-.185,1.81c.541.4,1.092.8,1.646,1.182a1.917,1.917,0,0,0,1.709-.834l4.712-6.917a1.918,1.918,0,0,0-.506-2.665Z" transform="translate(-371.727 -382.753)" fill="#fff"/>
    <path id="Path_547" data-name="Path 547" d="M380.493,437.57a1.916,1.916,0,0,0-2.5-1.053l-7.757,3.15a1.918,1.918,0,0,0,1.444,3.554l7.757-3.15a1.923,1.923,0,0,0,1.053-2.5Z" transform="translate(-331.764 -330.915)" fill="#fff"/>
    <path id="Path_548" data-name="Path 548" d="M470.37,385.93a4.016,4.016,0,0,1-3.282,4.627l-34.042,5.79a4.011,4.011,0,1,1-1.345-7.909l34.042-5.79a4.016,4.016,0,0,1,4.627,3.282Z" transform="translate(-370.393 -295.891)" fill="#ff4d62"/>
    <path id="Path_549" data-name="Path 549" d="M574.749,424.089a2.619,2.619,0,0,1-3.7.015L534.4,387.746a2.616,2.616,0,1,1,3.685-3.714l36.645,36.358a2.619,2.619,0,0,1,.015,3.7Z" transform="translate(-438.945 -296.334)" fill="#fba611"/>
    <circle id="Ellipse_50" data-name="Ellipse 50" cx="4.534" cy="4.534" r="4.534" transform="translate(92.779 86.457)" fill="#ccc"/>
    <circle id="Ellipse_54" data-name="Ellipse 54" cx="5.93" cy="5.93" r="5.93" transform="translate(48.133 19.14)" fill="#e6e6e6"/>
    <path id="Path_550" data-name="Path 550" d="M379.661,146.392c-6.96,10.943-17.58,18.2-30.676,22.975a2.462,2.462,0,0,1-3.447-.495h0a21.626,21.626,0,1,1,34.421-26.19l.2.263a2.462,2.462,0,0,1-.495,3.447Z" transform="translate(-313.581 -134.027)" fill="#afb7ed"/>
    <circle id="Ellipse_52" data-name="Ellipse 52" cx="5.93" cy="5.93" r="5.93" transform="translate(136.029 19.837)" fill="#e6e6e6"/>
    <path id="Path_551" data-name="Path 551" d="M628.567,142.683a21.627,21.627,0,1,1,34.421,26.19h0a2.462,2.462,0,0,1-3.447.495c-12.158-4.655-22.128-12.71-30.676-22.975a2.462,2.462,0,0,1-.495-3.447Z" transform="translate(-500.32 -134.027)" fill="#afb7ed"/>
    <path id="Path_552" data-name="Path 552" d="M619.275,580.706a1.922,1.922,0,0,0-.737,2.611L629.609,603.1a1.918,1.918,0,1,0,3.348-1.874l-11.071-19.784A1.922,1.922,0,0,0,619.275,580.706Z" transform="translate(-494.078 -424.746)" fill="#e6e6e6"/>
    <path id="Path_553" data-name="Path 553" d="M432.607,581.441l-11.071,19.785a1.918,1.918,0,1,0,3.348,1.874l11.071-19.785a1.918,1.918,0,1,0-3.348-1.874Z" transform="translate(-365.788 -424.743)" fill="#e6e6e6"/>
    <circle id="Ellipse_51" data-name="Ellipse 51" cx="5.93" cy="5.93" r="5.93" transform="translate(131.844 171.563)" fill="#e6e6e6"/>
    <circle id="Ellipse_53" data-name="Ellipse 53" cx="5.93" cy="5.93" r="5.93" transform="translate(91.035 5.885)" fill="#ff4d62"/>
    <circle id="Ellipse_55" data-name="Ellipse 55" cx="5.93" cy="5.93" r="5.93" transform="translate(51.97 171.563)" fill="#e6e6e6"/>
    <path id="Path_554" data-name="Path 554" d="M642.932,482.126a2.97,2.97,0,0,0,4.517.585l9.3,4.985-.5-5.463-8.759-3.9a2.986,2.986,0,0,0-4.563,3.789Z" transform="translate(-509.81 -357.706)" fill="#ffb7b7"/>
    <path id="Path_555" data-name="Path 555" d="M663.264,486.8l3.646-5.033,17.565,8.3,21.858-4.1a7.489,7.489,0,0,1,8.87,7.347h0a7.5,7.5,0,0,1-7.475,7.5l-25.049.046Z" transform="translate(-523.363 -360.476)" fill="#3f3d56"/>
    <path id="Path_556" data-name="Path 556" d="M378.111,579.317l-3.689-1.764,5.068-15.419,5.444,2.6Z" transform="translate(-243.826 -366.061)" fill="#ffb7b7"/>
    <path id="Path_557" data-name="Path 557" d="M700.434,711.127c-.268.168-.537.333-.807.5-.539.331-1.084.656-1.629.975-.274.16-.55.32-.824.477v.008l-.016,0-.005,0-.417.1-.6-1.582-.276-.729-.39-1.032-.715-1.889-3.766-9.945,5.856-1.444.219.9h0l.108.444,2.046,8.3.417,1.7.013.052.252,1.013.217.878.241.981Z" transform="translate(-541.417 -500.357)" fill="#ffb7b7"/>
    <path id="Path_558" data-name="Path 558" d="M727.231,604.966c-.371.6-.751,1.19-1.133,1.778q-1.065,1.642-2.187,3.235s0,0-.005.005a7.652,7.652,0,0,1-1.436,1.049c-.022.016-.046.027-.068.041a5.293,5.293,0,0,1-1.208.485l-.458.114c-.547.13-1.089.241-1.628.339q-1.439.256-2.851.368c-.076.008-.152.014-.228.019a44.083,44.083,0,0,1-11.592-.924c-1.946-.369-3.932-.81-5.988-1.268-.672-.152-1.347-.3-2.03-.45-.052-.011-.106-.024-.16-.035-.975-.214-1.967-.425-2.983-.634-1.279-.263-2.6-.518-3.97-.759l.1,1.932a14.544,14.544,0,0,0,.916,4.344,7.5,7.5,0,0,1,.07,5.888l-.471,1.366a4.664,4.664,0,0,1-.48,4.127l-.095.144,3.932,9.947.255.645h-2.013l-2.477,0h-4.2l-6.056-12.15-.29-.58v-.03l.626-23.349c.008-.206.024-.415.052-.62a7.1,7.1,0,0,1,2.7-4.78,6.836,6.836,0,0,1,5.091-1.393l2.073.268,4.235.547,2.983.387.06.008,8.8,1.138.631-2.574.117-.043,3.7-1.358,12.811-4.7.032-.011.843-.309.1.163c.03.049.06.1.087.146a25.112,25.112,0,0,1,2.024,4.7,73.746,73.746,0,0,1,2.127,8.121q.037.179.065.325l.008.03c.008.046.014.076.016.084A7.576,7.576,0,0,1,727.231,604.966Z" transform="translate(-533.283 -429.12)" fill="#2f2e41"/>
    <path id="Path_559" data-name="Path 559" d="M706.016,589.533c-.041-.173-.092-.35-.146-.52a37.079,37.079,0,0,0-1.5-3.8c-.639-1.409-1.406-2.918-2.319-4.552q-.662-1.187-1.425-2.469-.382-.642-.794-1.309a.674.674,0,0,0-.035-.06l-.078-.13-12.676,1.7-4.72.631-.282,2.352-.068.583s0,0,0,0l-.19,1.588v0l-.252,2.1-.022,0-7-.908-7.219-.935-3.878-.5a6.832,6.832,0,0,0-5.092,1.393,7.1,7.1,0,0,0-2.7,4.78c-.024.19-.041.385-.049.577l-3.658,8.668a55.927,55.927,0,0,0-4.135,16.269l-2.683,8.576.382.035,5.685.528,1.5.141,3.306-4.826c.377-.55.734-1.116,1.068-1.7a25.742,25.742,0,0,0,1.461-2.937l7.151-17.017q.829.142,1.642.271,3.76.61,7.219.994a85.053,85.053,0,0,0,19.77.192q2.435-.3,4.707-.78.833-.175,1.645-.377c.127-.03.252-.06.377-.092a6.915,6.915,0,0,0,4.837-4.52,7.056,7.056,0,0,0,.179-3.948Z" transform="translate(-511.527 -422.292)" fill="#2f2e41"/>
    <path id="Path_560" data-name="Path 560" d="M624.592,734.074l-3.991-1.913-.626-.3-1,2.455-6.98,1.536a1.656,1.656,0,0,0-.271,3.151l6.82,2.783,2.165-1.948-.531,2.615,2.569,1.049,2.815-8.961Z" transform="translate(-489.129 -523.336)" fill="#2f2e41"/>
    <path id="Path_561" data-name="Path 561" d="M458.7,593.34l.255.645H458.7Z" transform="translate(-298.71 -386.384)" fill="#2f2e41"/>
    <path id="Path_562" data-name="Path 562" d="M702.009,728.955l-4.182,1.449-.656.227,1.017,2.448-3.879,6a1.656,1.656,0,0,0,2.025,2.43l6.8-2.821.168-2.908,1.462,2.232,2.563-1.062-4.3-8.348Z" transform="translate(-543.406 -521.216)" fill="#2f2e41"/>
    <path id="Path_563" data-name="Path 563" d="M772.87,530.094a1.537,1.537,0,0,1-.713-.177l-22.07-11.532-.255-1.044-.481-3.3.007-.031,2.1-9.677c-.038-.083-.119-.219-.21-.373-.937-1.588-3.789-6.42,1.654-13.073l9.555-11.14,8.2-.353.093.118a21.361,21.361,0,0,1,3.631,19.842l-.854,15.423.916,3.115a8.594,8.594,0,0,1-.252,5.561l.21,5.043a1.541,1.541,0,0,1-1.533,1.6Z" transform="translate(-579.424 -358.927)" fill="#3f3d56"/>
    <path id="Path_564" data-name="Path 564" d="M753.449,635.8a2.97,2.97,0,0,0,.742-4.494l5.306-9.125-5.477.309-4.2,8.618a2.987,2.987,0,0,0,3.628,4.692Z" transform="translate(-579.147 -451.911)" fill="#ffb7b7"/>
    <path id="Path_565" data-name="Path 565" d="M758.877,545.493l-4.9-3.819,8.91-17.266-3.339-21.988a7.489,7.489,0,0,1,7.651-8.609h0a7.5,7.5,0,0,1,7.238,7.732l-.825,25.036Z" transform="translate(-582.433 -368.315)" fill="#3f3d56"/>
    <path id="a1ca5f83-7fa1-45b1-9d3b-bf096f25c0e5" d="M771.842,431.664v-8.115a10.874,10.874,0,0,1,21.749-.014v.014c1.917,3.994.718,5.893,0,8.115a1.463,1.463,0,0,1-1.46,1.46H773.3A1.463,1.463,0,0,1,771.842,431.664Z" transform="translate(-594.069 -315.476)" fill="#2f2e41"/>
    <circle id="Ellipse_56" data-name="Ellipse 56" cx="8.14" cy="8.14" r="8.14" transform="translate(176.942 100.841)" fill="#ffb7b7"/>
    <path id="Path_566" data-name="Path 566" d="M782.72,429.653c-.074-.012-.147-.027-.221-.039-1.27-.225-2.539-.446-3.805-.676l-.116-2.869-1.534,2.57a12.87,12.87,0,0,1-9.851-.943,27.82,27.82,0,0,1-2.951-1.627,10.787,10.787,0,0,1,5.3-7.634c.116-.066.229-.124.346-.183h0a0,0,0,0,0,0,0c.2-.093.4-.182.6-.264a8.966,8.966,0,0,1,9.412,1.825A10.711,10.711,0,0,1,782.72,429.653Z" transform="translate(-589.12 -318.538)" fill="#2f2e41"/>
  </g>
</svg>
