<svg id="Layer_1" data-name="Layer 1" xmlns="http://www.w3.org/2000/svg" viewBox="0 0 387.78 350.26"><g id="freepik--background-simple--inject-3"><path d="M253.75,180.64c-28.19-40.82-68.42-129-133.07-72.88-64.17,55.77-16.05,154.59,24.79,188C186.75,329.45,319.7,360,338.22,274.85,351,216.28,284.9,225.73,253.75,180.64Z" transform="translate(-56.11 -77.3)" style="fill:#3e7aff"/><path d="M253.75,180.64c-28.19-40.82-68.42-129-133.07-72.88-64.17,55.77-16.05,154.59,24.79,188C186.75,329.45,319.7,360,338.22,274.85,351,216.28,284.9,225.73,253.75,180.64Z" transform="translate(-56.11 -77.3)" style="fill:#fff;isolation:isolate;opacity:0.8999999761581421"/></g><g id="freepik--Shadow--inject-3"><ellipse id="freepik--path--inject-3" cx="193.89" cy="338.94" rx="193.89" ry="11.32" style="fill:#f5f5f5"/></g><g id="freepik--cross-icon--inject-3"><circle cx="284.6" cy="237.24" r="31.68" style="fill:#fff"/><path d="M340.71,346.61a32.07,32.07,0,1,1,32.06-32.08h0A32.1,32.1,0,0,1,340.71,346.61Zm0-63.35A31.29,31.29,0,1,0,372,314.55h0a31.31,31.31,0,0,0-31.29-31.28Z" transform="translate(-56.11 -77.3)" style="fill:#3e7aff"/><rect x="279.5" y="219.28" width="10.2" height="35.92" style="fill:#3e7aff"/><rect x="266.64" y="232.15" width="35.92" height="10.2" style="fill:#3e7aff"/></g><path d="M298.86,381.2H194.49a12.26,12.26,0,0,1-12.4-12.12c0-.36,0-.72,0-1.08L199,118a14.43,14.43,0,0,1,14.15-13.25H317.54a12.26,12.26,0,0,1,12.4,12.12c0,.38,0,.75,0,1.13L313,368A14.43,14.43,0,0,1,298.86,381.2Z" transform="translate(-56.11 -77.3)" style="fill:#263238"/><path d="M322,206.56h-2.63a3.42,3.42,0,0,1-3.46-3.38c0-.11,0-.21,0-.32l3.23-47.79a4,4,0,0,1,4-3.7h2.63a3.42,3.42,0,0,1,3.46,3.38c0,.11,0,.21,0,.32L326,202.86A4,4,0,0,1,322,206.56Z" transform="translate(-56.11 -77.3)" style="fill:#263238"/><path d="M197.48,174.68h-2.62a2.8,2.8,0,0,1-2.84-2.76,1.93,1.93,0,0,1,0-.24l1.17-17.26a3.3,3.3,0,0,1,3.23-3h2.63a2.81,2.81,0,0,1,2.83,2.79c0,.07,0,.14,0,.21l-1.17,17.26A3.29,3.29,0,0,1,197.48,174.68Z" transform="translate(-56.11 -77.3)" style="fill:#3e7aff"/><path d="M195.4,205.5h-2.63a2.81,2.81,0,0,1-2.83-2.77,1.77,1.77,0,0,1,0-.23l1.17-17.26a3.3,3.3,0,0,1,3.23-3H197a2.81,2.81,0,0,1,2.83,2.79c0,.07,0,.14,0,.21l-1.17,17.26A3.29,3.29,0,0,1,195.4,205.5Z" transform="translate(-56.11 -77.3)" style="fill:#3e7aff"/><path d="M296.65,381.2H192.28a12.26,12.26,0,0,1-12.4-12.12c0-.36,0-.72,0-1.08L196.8,118A14.44,14.44,0,0,1,211,104.79H315.33a12.26,12.26,0,0,1,12.4,12.12c0,.37,0,.73,0,1.09L310.8,368A14.43,14.43,0,0,1,296.65,381.2Z" transform="translate(-56.11 -77.3)" style="fill:#3e7aff"/><polygon points="124.91 287.9 141.39 43.94 270.45 43.94 253.97 287.9 124.91 287.9" style="fill:#fff;isolation:isolate;opacity:0.30000001192092896"/><polygon points="175.86 287.9 221.92 43.94 250.83 43.94 204.77 287.9 175.86 287.9" style="fill:#fff;isolation:isolate;opacity:0.10000000149011612"/><polygon points="154.02 287.9 200.08 43.94 214.73 43.94 168.67 287.9 154.02 287.9" style="fill:#fff;isolation:isolate;opacity:0.10000000149011612"/><path d="M250.14,110.92h25.17a1.51,1.51,0,0,1,1.53,1.47c0,.06,0,.11,0,.16h0a1.78,1.78,0,0,1-1.74,1.64H249.92a1.52,1.52,0,0,1-1.53-1.49s0-.1,0-.15h0A1.77,1.77,0,0,1,250.14,110.92Z" transform="translate(-56.11 -77.3)" style="fill:#fff"/><polygon points="188.79 327.95 179.97 328.79 176.79 308.44 185.61 307.59 188.79 327.95" style="fill:#ffb573"/><path d="M235.07,401.78l9.24-2.87a.65.65,0,0,1,.82.38l3,7.33a1.52,1.52,0,0,1-.88,2l-.12,0c-3.34,1-6.52,1.23-10.55,3-4.71,2-6.68,4.68-11.75,4.68-3.63,0-4.45-3.33-2.91-3.79,7-2.12,6.08-3.86,11.16-9.33A4.67,4.67,0,0,1,235.07,401.78Z" transform="translate(-56.11 -77.3)" style="fill:#263238"/><polygon points="176.79 308.44 178.43 318.94 187.26 318.09 185.62 307.59 176.79 308.44" style="isolation:isolate;opacity:0.20000000298023224"/><path d="M239.28,128.6c-11.57-1.36-23.08-.45-34.63,1.79a9.23,9.23,0,0,0-7.41,8c-1.25,11.06-2.68,35.85,2.9,72.83l47.28-4c.09-6.71-4.68-37.28-.74-69a8.47,8.47,0,0,0-7.18-9.59Z" transform="translate(-56.11 -77.3)" style="fill:#fff"/><path d="M211.75,138.08l1.69,3.38a1,1,0,0,0,.89.58l1.83.1a1.41,1.41,0,0,0,.91-.28l3.15-2.35-3.89-2.83Z" transform="translate(-56.11 -77.3)" style="fill:#263238"/><path d="M216.22,141.17a3.07,3.07,0,0,0-2.13-.17c-1.49,5.25-3.12,20.32-3.29,27,4.52,13.17,6,14.5,6,14.5l2.29-15.85S216.52,150.44,216.22,141.17Z" transform="translate(-56.11 -77.3)" style="fill:#263238"/><path d="M229.27,105.8c-1.08,6.52-2,18.43,2.68,22.64-3.43,3.6-7.92,7.77-15.62,8.24s-6.51-4.86-4.56-7.71c7.19-1.92,6.84-7.28,5.43-12.29Z" transform="translate(-56.11 -77.3)" style="fill:#ffb573"/><path d="M233.91,127.87a9.27,9.27,0,0,0-1.69-.55.67.67,0,0,0-.75.31c-.74,1.26-3,6.89-15.14,9.05,2,1.18,4.65,4.84,5.79,6.6,3.64-1.89,13.11-7.54,12.21-14.85A.72.72,0,0,0,233.91,127.87Z" transform="translate(-56.11 -77.3)" style="fill:#f5f5f5"/><path d="M211.84,129.27a.69.69,0,0,0-.82-.84,9.07,9.07,0,0,0-1.24.33,1.35,1.35,0,0,0-.26.15c-.93.86-6,8.18-1.25,14.1,1-1.61,4.45-5.26,8.06-6.33C212.91,135.14,211.23,132.27,211.84,129.27Z" transform="translate(-56.11 -77.3)" style="fill:#f5f5f5"/><path d="M224.35,110.24l-7.14,6.44a20.42,20.42,0,0,1,.72,3.56c2.76-.47,6.47-3.6,6.67-6.5A9.39,9.39,0,0,0,224.35,110.24Z" transform="translate(-56.11 -77.3)" style="isolation:isolate;opacity:0.20000000298023224"/><path d="M214.81,86.09c-6.16,2.41-6.56,7.47-6,13s6.58,1.87,7.92-1.59S223.34,82.75,214.81,86.09Z" transform="translate(-56.11 -77.3)" style="fill:#263238"/><path d="M234.46,97.12c-1.71,8.71-2.28,13.88-7.26,17.89-7.51,6-17.68.82-18.58-8.16-.81-8.09,2.12-21,11.09-23.52a11.72,11.72,0,0,1,14.75,13.79Z" transform="translate(-56.11 -77.3)" style="fill:#ffb573"/><path d="M234.1,104.33c-7.33.39-5.78-3.77-4.45-6.16s-1.38-6.34.39-8.39c-3.16,1.26-6.49.22-10.72-2.72-3.28-2.29-7.39,6.86-11.39,2.27-3.78-4.33-.27-10.86,8.81-11.91s10.73,5.37,16.69,4.8,3.89,4.34,2.72,5.34C241.15,87.89,243.88,92.67,234.1,104.33Z" transform="translate(-56.11 -77.3)" style="fill:#263238"/><path d="M235,88.17a7.34,7.34,0,0,0,3.81-6.39C240.79,85.25,240.58,89.19,235,88.17Z" transform="translate(-56.11 -77.3)" style="fill:#263238"/><path d="M216,106.42a6,6,0,0,0,4.58-1.08.2.2,0,0,0,0-.28h0a.21.21,0,0,0-.29,0,5.76,5.76,0,0,1-5.09.79.23.23,0,0,0-.27.14.21.21,0,0,0,.14.26A4.93,4.93,0,0,0,216,106.42Z" transform="translate(-56.11 -77.3)" style="fill:#263238"/><path d="M236.23,107a8.55,8.55,0,0,1-5.59,3.22c-2.91.38-3.88-2.33-2.66-4.86,1.11-2.28,4-5.22,6.68-4.43S237.91,104.8,236.23,107Z" transform="translate(-56.11 -77.3)" style="fill:#ffb573"/><path d="M233.34,296.37c.35-26.11,3.69-88.3,3.69-88.3l-36.86,3.11s7.33,64.09,11.75,90.73c4.6,27.69,18.71,92.56,18.71,92.56l15-1.28S240.15,316.56,233.34,296.37Z" transform="translate(-56.11 -77.3)" style="fill:#263238"/><polygon points="173.62 317.58 191.41 316.07 190.71 310.33 172.17 311.57 173.62 317.58" style="fill:#3e7aff"/><path d="M221.32,97.64c-.09.71-.55,1.25-1,1.2s-.76-.67-.66-1.39.55-1.25,1-1.2S221.42,96.93,221.32,97.64Z" transform="translate(-56.11 -77.3)" style="fill:#263238"/><path d="M213.16,97c-.09.72-.55,1.25-1,1.2s-.76-.67-.66-1.38.55-1.25,1-1.2S213.26,96.25,213.16,97Z" transform="translate(-56.11 -77.3)" style="fill:#263238"/><path d="M215.46,97.84a24.72,24.72,0,0,1-4.3,5c1.06,1.11,3.25.81,3.25.81Z" transform="translate(-56.11 -77.3)" style="fill:#ed893e"/><path d="M208,97.18c-.15,1.14,1,2.09,2.59,2.29s3.06-.67,3.2-1.81" transform="translate(-56.11 -77.3)" style="fill:#3e7aff;isolation:isolate;opacity:0.4000000059604645"/><path d="M217.45,98.24c-.22,1.13.89,2.15,2.45,2.45s3.09-.5,3.3-1.62" transform="translate(-56.11 -77.3)" style="fill:#3e7aff;isolation:isolate;opacity:0.4000000059604645"/><path d="M220.52,101a4.86,4.86,0,0,1-.54,0,3.81,3.81,0,0,1-2.07-.93,2.1,2.1,0,0,1-.72-1.77,5,5,0,0,0-1.6-.4,3.45,3.45,0,0,0-1.69,0c-.14,1.22-1.66,2.06-3.36,1.85a3.73,3.73,0,0,1-2.07-.92,2.1,2.1,0,0,1-.72-1.77l.48.06a1.6,1.6,0,0,0,.57,1.36,3.24,3.24,0,0,0,1.8.79c1.44.19,2.72-.48,2.85-1.48.07-.56,1.23-.52,2.19-.4s2.1.39,2,.94a1.6,1.6,0,0,0,.57,1.36,3.45,3.45,0,0,0,3.75.48,1.61,1.61,0,0,0,.9-1.17v-.24l12.34,1.59-.06.48L223.26,99.3a2.13,2.13,0,0,1-1.1,1.29A3.5,3.5,0,0,1,220.52,101Z" transform="translate(-56.11 -77.3)" style="fill:#263238"/><path d="M224.46,94.5a.36.36,0,0,0,.2-.06.44.44,0,0,0,.16-.58,4,4,0,0,0-3.14-2.1.44.44,0,0,0-.45.4.42.42,0,0,0,.39.44h0a3.2,3.2,0,0,1,2.47,1.7A.41.41,0,0,0,224.46,94.5Z" transform="translate(-56.11 -77.3)" style="fill:#263238"/><path d="M210.52,93.37a.43.43,0,0,0,.37-.15,3.4,3.4,0,0,1,2.76-1.34.42.42,0,0,0,.46-.38h0a.41.41,0,0,0-.35-.46h0a4.3,4.3,0,0,0-3.5,1.65.41.41,0,0,0,.05.59A.47.47,0,0,0,210.52,93.37Z" transform="translate(-56.11 -77.3)" style="fill:#263238"/><path d="M264.05,292.16c-7.65-39.32-9.37-70.07-16.63-85l-35.71,4s21.27,58.59,31.66,83.6c10.79,26,32.09,70.42,32.09,70.42H293.3S276.65,310.07,264.05,292.16Z" transform="translate(-56.11 -77.3)" style="fill:#263238"/><path d="M150.86,143.31,147,140.87a3.22,3.22,0,0,0-4.06.47l-2.62,2.76a3,3,0,0,0,.11,4.24l.15.13,1.87,1.6a15.23,15.23,0,0,0,5.57,3l5.65,1.67,3.71-4C158.51,146.57,150.86,143.31,150.86,143.31Z" transform="translate(-56.11 -77.3)" style="fill:#ffb573"/><path d="M208,141.44c-1.4,3.42-2.77,6.6-4.26,9.85s-3,6.46-4.67,9.65-3.45,6.36-5.47,9.54a54.83,54.83,0,0,1-3.37,4.75,30.52,30.52,0,0,1-4.6,4.77,16.33,16.33,0,0,1-3.69,2.28c-.42.16-.81.32-1.27.46l-.7.19a7.73,7.73,0,0,1-1.07.19,9.93,9.93,0,0,1-3.64-.26,15.06,15.06,0,0,1-4.18-1.91,24.41,24.41,0,0,1-2.75-2,65.4,65.4,0,0,1-8-8.27c-2.33-2.8-4.53-5.61-6.64-8.48s-4.14-5.69-6.22-8.7l11.06-7.14a149.19,149.19,0,0,0,11.56,16.15,54.34,54.34,0,0,0,6.37,6.59,12.43,12.43,0,0,0,1.41,1c.37.25.74.35.48.26a2.46,2.46,0,0,0-1.08-.06,2,2,0,0,0-.43.08h-.14a6.14,6.14,0,0,0,.65-.49,18.88,18.88,0,0,0,2.47-2.74c.85-1.14,1.7-2.42,2.51-3.75a92.87,92.87,0,0,0,4.52-8.54c1.4-3,2.75-6,4-9.12s2.44-6.29,3.45-9.32Z" transform="translate(-56.11 -77.3)" style="fill:#3e7aff"/><g style="opacity:0.75"><path d="M208,141.44c-1.4,3.42-2.77,6.6-4.26,9.85s-3,6.46-4.67,9.65-3.45,6.36-5.47,9.54a54.83,54.83,0,0,1-3.37,4.75,30.52,30.52,0,0,1-4.6,4.77,16.33,16.33,0,0,1-3.69,2.28c-.42.16-.81.32-1.27.46l-.7.19a7.73,7.73,0,0,1-1.07.19,9.93,9.93,0,0,1-3.64-.26,15.06,15.06,0,0,1-4.18-1.91,24.41,24.41,0,0,1-2.75-2,65.4,65.4,0,0,1-8-8.27c-2.33-2.8-4.53-5.61-6.64-8.48s-4.14-5.69-6.22-8.7l11.06-7.14a149.19,149.19,0,0,0,11.56,16.15,54.34,54.34,0,0,0,6.37,6.59,12.43,12.43,0,0,0,1.41,1c.37.25.74.35.48.26a2.46,2.46,0,0,0-1.08-.06,2,2,0,0,0-.43.08h-.14a6.14,6.14,0,0,0,.65-.49,18.88,18.88,0,0,0,2.47-2.74c.85-1.14,1.7-2.42,2.51-3.75a92.87,92.87,0,0,0,4.52-8.54c1.4-3,2.75-6,4-9.12s2.44-6.29,3.45-9.32Z" transform="translate(-56.11 -77.3)" style="fill:#fff"/></g><path d="M234.18,126.09c-3.75,7-17.1,33.67-18.72,50.13-5.91-15-4.62-48.18-4.62-48.18a44.43,44.43,0,0,0-12.27,3A7.4,7.4,0,0,0,194,137.3a262,262,0,0,0,1.62,51.47c4.15,32.3,8,82.53,8,82.53s33-1.38,58.55-6.76c-3.11-24.69-13.75-66.07-13.85-77.15-.12-14.26.21-42.14.66-53.78a6.88,6.88,0,0,0-5.52-7.07A34.37,34.37,0,0,0,234.18,126.09Z" transform="translate(-56.11 -77.3)" style="fill:#3e7aff"/><path d="M234.18,126.09c-3.75,7-17.1,33.67-18.72,50.13-5.91-15-4.62-48.18-4.62-48.18a44.43,44.43,0,0,0-12.27,3A7.4,7.4,0,0,0,194,137.3a262,262,0,0,0,1.62,51.47c4.15,32.3,8,82.53,8,82.53s33-1.38,58.55-6.76c-3.11-24.69-13.75-66.07-13.85-77.15-.12-14.26.21-42.15.66-53.79a6.77,6.77,0,0,0-5.21-7A34.3,34.3,0,0,0,234.18,126.09Z" transform="translate(-56.11 -77.3)" style="fill:#fff;isolation:isolate;opacity:0.8"/><path d="M226.39,265.94c-5.74-31.67-10.29-78.14-10.66-83.73h.51c.37,5.59,4.93,52,10.66,83.67Z" transform="translate(-56.11 -77.3)" style="fill:#fff"/><path d="M223.53,209.6H193.05a2.86,2.86,0,0,1-2.64-2.17l-10.19-47.37a1.7,1.7,0,0,1,1.16-2.1,1.44,1.44,0,0,1,.54-.07h30.47a2.85,2.85,0,0,1,2.65,2.17l10.19,47.37a1.7,1.7,0,0,1-1.16,2.1A1.44,1.44,0,0,1,223.53,209.6Z" transform="translate(-56.11 -77.3)" style="fill:#fff"/><path d="M222.58,210h-31a2.91,2.91,0,0,1-2.69-2.21l-10.37-48.17a1.74,1.74,0,0,1,1.2-2.15,1.66,1.66,0,0,1,.54-.06h31a2.91,2.91,0,0,1,2.69,2.21l10.36,48.17a1.72,1.72,0,0,1-1.18,2.14A1.7,1.7,0,0,1,222.58,210Z" transform="translate(-56.11 -77.3)" style="fill:#3e7aff"/><path d="M226.13,182.82l-7.71-.29a6.61,6.61,0,0,0-2.71.48l-4,1.6A3,3,0,0,0,210,188.5a.49.49,0,0,0,0,.11l1.6,3.46a3.25,3.25,0,0,0,3.7,1.74l4.41-1.1s8.28-.66,8.58-5Z" transform="translate(-56.11 -77.3)" style="fill:#ffb573"/><path d="M247.42,130.38c1.91,3,3.66,5.74,5.38,8.68s3.41,5.85,5,8.89,3.1,6.18,4.47,9.54a48.78,48.78,0,0,1,1.82,5.39,22.79,22.79,0,0,1,.88,6.87v.59a5.77,5.77,0,0,1-.17,1.08c-.07.36-.16.64-.26,1a6.9,6.9,0,0,1-.32.83,10.83,10.83,0,0,1-1.46,2.42,17.63,17.63,0,0,1-2.77,2.76,36.07,36.07,0,0,1-5,3.31,96.44,96.44,0,0,1-9.52,4.54c-3.15,1.34-6.29,2.56-9.45,3.71s-6.27,2.26-9.56,3.36l-3.81-12.6c3-.82,6.06-1.83,9-2.85s6-2.16,8.84-3.35a77.13,77.13,0,0,0,8.14-3.93,23.91,23.91,0,0,0,3.17-2.11,3.81,3.81,0,0,0,.7-.69,1.12,1.12,0,0,0-.2.33.66.66,0,0,1-.1.26,2.37,2.37,0,0,0-.09.36,2.43,2.43,0,0,0-.08.47v0a11.5,11.5,0,0,0-.55-2.79,35.55,35.55,0,0,0-1.42-3.85,76.72,76.72,0,0,0-4.14-8.07c-1.56-2.68-3.22-5.36-5-8s-3.6-5.27-5.43-7.67Z" transform="translate(-56.11 -77.3)" style="fill:#3e7aff"/><g style="opacity:0.8"><path d="M247.42,130.38c1.91,3,3.66,5.74,5.38,8.68s3.41,5.85,5,8.89,3.1,6.18,4.47,9.54a48.78,48.78,0,0,1,1.82,5.39,22.79,22.79,0,0,1,.88,6.87v.59a5.77,5.77,0,0,1-.17,1.08c-.07.36-.16.64-.26,1a6.9,6.9,0,0,1-.32.83,10.83,10.83,0,0,1-1.46,2.42,17.63,17.63,0,0,1-2.77,2.76,36.07,36.07,0,0,1-5,3.31,96.44,96.44,0,0,1-9.52,4.54c-3.15,1.34-6.29,2.56-9.45,3.71s-6.27,2.26-9.56,3.36l-3.81-12.6c3-.82,6.06-1.83,9-2.85s6-2.16,8.84-3.35a77.13,77.13,0,0,0,8.14-3.93,23.91,23.91,0,0,0,3.17-2.11,3.81,3.81,0,0,0,.7-.69,1.12,1.12,0,0,0-.2.33.66.66,0,0,1-.1.26,2.37,2.37,0,0,0-.09.36,2.43,2.43,0,0,0-.08.47v0a11.5,11.5,0,0,0-.55-2.79,35.55,35.55,0,0,0-1.42-3.85,76.72,76.72,0,0,0-4.14-8.07c-1.56-2.68-3.22-5.36-5-8s-3.6-5.27-5.43-7.67Z" transform="translate(-56.11 -77.3)" style="fill:#fff"/></g><path d="M237.3,165.08a.37.37,0,0,1-.33-.19.39.39,0,0,1,.11-.54h0l1.56-1a8.5,8.5,0,0,0,3.8-8.86l-3.14-15.9a5.38,5.38,0,0,0-10.46-.44l-4.45,15.59a8.47,8.47,0,0,0,3,9.14l1.48,1.12a.41.41,0,0,1,.07.56.4.4,0,0,1-.55.07h0l-1.4-1.11a9.29,9.29,0,0,1-3.33-10l4.46-15.59a6.18,6.18,0,0,1,12,.5l3.14,15.91a9.27,9.27,0,0,1-4.15,9.68l-1.57,1A.32.32,0,0,1,237.3,165.08Z" transform="translate(-56.11 -77.3)" style="fill:#263238"/><path d="M239.7,138.91h0l-11.23-.47a.4.4,0,0,1-.38-.42h0a.42.42,0,0,1,.42-.38l11.22.47a.4.4,0,0,1,.38.42h0a.38.38,0,0,1-.4.38Z" transform="translate(-56.11 -77.3)" style="fill:#263238"/><path d="M234.24,134.25a.41.41,0,0,1-.4-.39c0-2-.62-5.47-2.49-6.23a.4.4,0,0,1-.25-.51.4.4,0,0,1,.5-.25l.05,0c2.77,1.14,3,6.36,3,7a.41.41,0,0,1-.39.41Z" transform="translate(-56.11 -77.3)" style="fill:#263238"/><path d="M199.89,147.84h-.08a.41.41,0,0,1-.31-.47c1.32-6.57,6.78-16.94,11.59-20a.39.39,0,0,1,.54.13h0a.38.38,0,0,1-.1.53h0c-4.65,2.94-9.95,13-11.23,19.47A.4.4,0,0,1,199.89,147.84Z" transform="translate(-56.11 -77.3)" style="fill:#263238"/><path d="M203.17,148.87c-.62,1.59-2,2.55-3,2.14s-1.39-2-.77-3.63,2-2.55,3-2.13S203.8,147.28,203.17,148.87Z" transform="translate(-56.11 -77.3)" style="fill:#fff"/><path d="M229.57,164.36c0,.74-.46,1.33-.95,1.31s-.87-.64-.84-1.39.46-1.34.95-1.31S229.6,163.61,229.57,164.36Z" transform="translate(-56.11 -77.3)" style="fill:#fff"/><path d="M238.19,164.72c0,.74-.45,1.33-.95,1.31s-.86-.64-.83-1.39.45-1.33,1-1.31S238.22,164,238.19,164.72Z" transform="translate(-56.11 -77.3)" style="fill:#fff"/><g id="freepik--Chat--inject-3"><path d="M407.77,150.85l-1-.06a15.41,15.41,0,0,0-14.16-16.56c-.44,0-.89,0-1.33,0v-1a16.4,16.4,0,0,1,16.54,16.26C407.82,149.91,407.81,150.38,407.77,150.85Z" transform="translate(-56.11 -77.3)" style="fill:#3e7aff"/><rect x="404.36" y="158.72" width="8.3" height="1" transform="translate(165.04 478.31) rotate(-86)" style="fill:#3e7aff"/><path d="M391.28,136.68h-69a15.18,15.18,0,0,0-14.88,13.94l-.63,9.29a12.91,12.91,0,0,0,11.84,13.9c.38,0,.77,0,1.16,0h69l13.38,8.25,2.12-31.48a12.91,12.91,0,0,0-11.82-13.9C392.06,136.69,391.67,136.68,391.28,136.68Z" transform="translate(-56.11 -77.3)" style="fill:#3e7aff"/><rect x="267.76" y="72.69" width="63.91" height="2.32" style="fill:#fff"/><rect x="283.66" y="80.92" width="47.45" height="2.32" style="fill:#fff"/><path d="M287.48,186.38H358a13.19,13.19,0,0,1,13.33,13.05c0,.4,0,.8,0,1.2l-.64,9.5a15.53,15.53,0,0,1-15.21,14.25H284.91l-14.82,8.45,2.18-32.2A15.52,15.52,0,0,1,287.48,186.38Z" transform="translate(-56.11 -77.3)" style="fill:#fff"/><path d="M287.48,186.38H358a13.19,13.19,0,0,1,13.33,13.05c0,.4,0,.8,0,1.2l-.64,9.5a15.53,15.53,0,0,1-15.21,14.25H284.91l-14.82,8.45,2.18-32.2A15.52,15.52,0,0,1,287.48,186.38Z" transform="translate(-56.11 -77.3)" style="fill:#3e7aff;isolation:isolate;opacity:0.15000000596046448"/><rect x="232.95" y="122.69" width="65.36" height="2.38" style="fill:#3e7aff;isolation:isolate;opacity:0.5"/><rect x="232.38" y="131.1" width="25.83" height="2.38" style="fill:#3e7aff;isolation:isolate;opacity:0.5"/><rect x="264.54" y="131.1" width="16.5" height="2.38" style="fill:#3e7aff;isolation:isolate;opacity:0.5"/></g></svg>