<svg xmlns="http://www.w3.org/2000/svg" width="145.072" height="141.08" viewBox="0 0 145.072 141.08"><g transform="translate(113.051 153.088) rotate(-135)"><path d="M95.851,0H83.2L77.723,5.66,72.247,0H61.295L55.819,5.66,50.343,0H39.391L33.915,5.66,28.439,0H11.322L0,14.157,11.322,28.3h84.53" transform="translate(0 16.982)" fill="#f9bc36"/><path d="M4.522,5.661,0,.011.011,0H95.85V5.661Z" transform="translate(0.005 31.136)" fill="#f9aa36" fill-rule="evenodd"/><path d="M3.395,28.294A31,31,0,0,1,3.439,0H9.551V28.294Z" transform="translate(86.303 16.995)" fill="#f9aa36"/><circle cx="31.136" cy="31.136" r="31.136" transform="translate(154.2 62.272) rotate(180)" fill="#f9bc36"/><circle cx="6.793" cy="6.793" r="6.793" transform="translate(144.752 40.76) rotate(180)" fill="#fff"/><path d="M15.989,33.939a17.273,17.273,0,0,1-2.322-.354A31.115,31.115,0,0,0,15.724,28.2,11.3,11.3,0,1,0,7.84,23.645H7.42A6.793,6.793,0,0,1,4.59,28.212a2.83,2.83,0,0,1-1.161-1A16.975,16.975,0,1,1,15.99,33.939Z" transform="translate(137.248 11.327)" fill="#f9aa36"/></g></svg>