<svg xmlns="http://www.w3.org/2000/svg" width="384.953" height="175.436" viewBox="0 0 384.953 175.436">
  <g id="Group_1" data-name="Group 1" transform="translate(-0.001)">
    <circle id="Ellipse_1" data-name="Ellipse 1" cx="17.258" cy="17.258" r="17.258" transform="translate(336.652 64.631)" fill="#f2f2f2"/>
    <circle id="Ellipse_2" data-name="Ellipse 2" cx="4.542" cy="4.542" r="4.542" transform="translate(349.368 77.348)" fill="#e6e6e6"/>
    <path id="Path_1" data-name="Path 1" d="M840.162,380.929a6.743,6.743,0,0,1,2.14,6.4,11.105,11.105,0,0,1-3.812,6.667,37.281,37.281,0,0,1-7.727,4.788,56.214,56.214,0,0,0-7.074,4.294,54.821,54.821,0,0,0-18.84,25.115c-3.717,9.928-4.714,21.2-1.89,31.486,1.4,5.091,4.224,10.583,9.491,12.5,4.2,1.527,9.93.543,12.067-3.783,2.3-4.648-.907-9.872-5.034-12.18-5.349-2.991-11.739-.805-16.55,2.222-5.3,3.333-9.555,8.116-15.085,11.1a18.955,18.955,0,0,1-8.1,2.364,20.3,20.3,0,0,1-7.679-1.186,26.011,26.011,0,0,1-12.563-9.751c-3.513-5.106-5.085-11.365-5.372-17.5-.641-13.718,4.778-26.552,9.126-39.274a119.993,119.993,0,0,0,5.232-20.373,105.549,105.549,0,0,0,1.156-21.068c-.288-6.228-.9-12.741-3.651-18.429-2.417-5-6.835-9.1-12.42-10.128a12.388,12.388,0,0,0-7.466.858c-.8.363-.1,1.538.688,1.176,4.943-2.255,10.784-.061,14.435,3.58,4.263,4.251,5.828,10.529,6.524,16.322A102.454,102.454,0,0,1,764.135,397c-3.791,12.876-9.754,25.215-11.129,38.706a44.227,44.227,0,0,0,1.662,18.423,28.775,28.775,0,0,0,9.119,13.428,24.679,24.679,0,0,0,14.156,5.7c5.838.277,10.957-2.326,15.487-5.788,4.851-3.708,9.314-8.283,15.19-10.362a13.27,13.27,0,0,1,8.481-.478,10.64,10.64,0,0,1,5.655,4.547,6.823,6.823,0,0,1,.545,6.6,7.071,7.071,0,0,1-5.191,3.564,10.073,10.073,0,0,1-6.687-1.136,14.123,14.123,0,0,1-5.325-6.032c-2.425-4.791-3.24-10.494-3.364-15.812a52.358,52.358,0,0,1,1.975-15.375,54.251,54.251,0,0,1,16.39-26.127,48.125,48.125,0,0,1,6.346-4.673c2.443-1.506,5.051-2.709,7.542-4.13a20.471,20.471,0,0,0,6.554-5.37,11.552,11.552,0,0,0,2.219-6.79,7.614,7.614,0,0,0-2.636-5.937c-.674-.55-1.643.409-.963.963Z" transform="translate(-487.082 -298.943)" fill="#ff4d62"/>
    <path id="Path_2" data-name="Path 2" d="M597.009,612.166a39.666,39.666,0,0,0,20.2,6.331,9.453,9.453,0,0,1-.432.89A11.341,11.341,0,0,1,595.456,614v-1.83Z" transform="translate(-405.043 -450.799)" fill="#273fdb"/>
    <path id="Path_3" data-name="Path 3" d="M666.016,613.346v1.294a11.336,11.336,0,0,1-21.291,5.427,9.472,9.472,0,0,1-.45-.913c.332.009.659.014.99.014A39.725,39.725,0,0,0,666.016,613.346Z" transform="translate(-431.691 -451.443)" fill="#273fdb"/>
    <path id="Path_4" data-name="Path 4" d="M724.547,311.84c-.341-.05-.686-.082-1.031-.1a38.141,38.141,0,0,1,.758,28.48c.345-.041.686-.1,1.027-.159a14.307,14.307,0,0,0-.754-28.217Z" transform="translate(-474.944 -286.812)" fill="#fbc611"/>
    <path id="Path_5" data-name="Path 5" d="M553.326,311.736c-.345.023-.69.055-1.031.1a14.307,14.307,0,0,0-.754,28.217c.341.064.681.118,1.026.159a38.14,38.14,0,0,1,.758-28.48Z" transform="translate(-374.749 -286.812)" fill="#fbc611"/>
    <path id="Path_6" data-name="Path 6" d="M635.539,283.142a39.056,39.056,0,1,0,3.029,15.078,39.056,39.056,0,0,0-3.029-15.078Zm-.273,28.376a38.141,38.141,0,1,1,2.393-13.3A38.141,38.141,0,0,1,635.266,311.518Z" transform="translate(-385.935 -258.114)" fill="#3f3d56"/>
    <path id="Path_7" data-name="Path 7" d="M632.87,325.666H592.9a7.948,7.948,0,0,0,0,15.9H632.87a7.948,7.948,0,0,0,0-15.9Z" transform="translate(-399.312 -294.415)" fill="#3f3d56"/>
    <path id="Path_8" data-name="Path 8" d="M597.353,448.166a40.873,40.873,0,0,0-1.844,81.7c.432.023.868.036,1.3.036.182.009.359.009.54.009a40.874,40.874,0,0,0,0-81.748Zm20.75,75.018a39.724,39.724,0,0,1-20.75,5.822c-.332,0-.659,0-.99-.014q-.211,0-.422-.014a39.989,39.989,0,1,1,22.163-5.8Z" transform="translate(-383.778 -361.281)" fill="#3f3d56"/>
    <path id="Path_9" data-name="Path 9" d="M682.513,504.718H664.649a4.693,4.693,0,1,1,0-9.386h17.864a4.693,4.693,0,1,1,0,9.386Z" transform="translate(-440.25 -387.026)" fill="#3f3d56"/>
    <circle id="Ellipse_3" data-name="Ellipse 3" cx="2.382" cy="2.382" r="2.382" transform="translate(223.209 110.617)" fill="#f2f2f2"/>
    <circle id="Ellipse_4" data-name="Ellipse 4" cx="2.382" cy="2.382" r="2.382" transform="translate(230.949 110.617)" fill="#f2f2f2"/>
    <circle id="Ellipse_5" data-name="Ellipse 5" cx="2.382" cy="2.382" r="2.382" transform="translate(238.69 110.617)" fill="#273fdb"/>
    <path id="Path_10" data-name="Path 10" d="M250.957,565.174a16.484,16.484,0,0,0,5.914-14.21c-.651-5.307-4.68-10.186-9.907-11.313s-11.185,1.993-12.772,7.1c-.874-9.844-1.88-20.1-7.114-28.482a30.164,30.164,0,0,0-21.842-13.993,27.064,27.064,0,0,0-23.809,9.719,24.563,24.563,0,0,0-3.021,25.289c2.862,5.938,8.136,10.357,13.661,13.952,17.627,11.47,39.493,15.345,60.3,12.283Z" transform="translate(-176.19 -391.823)" fill="#f2f2f2"/>
    <path id="Path_11" data-name="Path 11" d="M205.32,510.6a144.25,144.25,0,0,1,20.1,19.962A144.67,144.67,0,0,1,248.066,568.4c.408,1-1.215,1.434-1.618.446a143.864,143.864,0,0,0-42.314-57.06c-.838-.682.356-1.863,1.186-1.186Z" transform="translate(-191.287 -395.252)" fill="#fff"/>
    <circle id="Ellipse_6" data-name="Ellipse 6" cx="14.079" cy="14.079" r="14.079" transform="translate(59.302 1.817)" fill="#2f2e41"/>
    <path id="Path_12" data-name="Path 12" d="M406.211,384.7a4.9,4.9,0,0,1-.976,1.078,5,5,0,0,1-7.37-1.134,4.658,4.658,0,0,1-.244-.426l-22.185-2.14a8.181,8.181,0,0,1-7.215-6.585l-1.259-6.638,8.658-1.347,1.554,5.318,21.631,5.313a4.756,4.756,0,0,1,.532-.4,5,5,0,0,1,6.875,6.967Z" transform="translate(-280.321 -317.255)" fill="#ffb8b8"/>
    <path id="Path_13" data-name="Path 13" d="M371.675,355.254,362,357.867a2.046,2.046,0,0,1-2.506-1.44l-3.388-12.54a5.631,5.631,0,0,1,10.447-4.036l6.4,12.5a2.044,2.044,0,0,1-1.286,2.9Z" transform="translate(-274.291 -300.485)" fill="#ff4d62"/>
    <path id="Path_14" data-name="Path 14" d="M202.09,348.321h5.568l2.649-21.476h-8.218Z" transform="translate(-110.308 -178.406)" fill="#ffb8b8"/>
    <path id="Path_15" data-name="Path 15" d="M0,0H17.5V6.761H6.761A6.761,6.761,0,0,1,0,0H0Z" transform="translate(108.087 175.085) rotate(179.997)" fill="#ff4d62"/>
    <path id="Path_16" data-name="Path 16" d="M92.822,338.038,98.031,340,108.1,320.849l-7.688-2.9Z" transform="translate(-50.666 -173.548)" fill="#ffb8b8"/>
    <path id="Path_17" data-name="Path 17" d="M0,0H17.5V6.761H6.761A6.761,6.761,0,0,1,0,0H0Z" transform="translate(55.583 175.085) rotate(-159.315)" fill="#ff4d62"/>
    <path id="Path_18" data-name="Path 18" d="M319.325,501.436a2.042,2.042,0,0,1-1.942-1.414l-14.2-43.855a.681.681,0,0,0-1.265-.08L282.237,497.96a2.046,2.046,0,0,1-2.5,1.07l-7.751-2.584a2.048,2.048,0,0,1-1.33-2.461l12.055-45.664a104.043,104.043,0,0,0,2.726-14.727,33.385,33.385,0,0,1,10.771-21.29,15.534,15.534,0,0,0,4.889-9.293l.032-.228,17.655,2.787,11.183,91.253a2.053,2.053,0,0,1-1.5,2.222l-8.617,2.32a2.033,2.033,0,0,1-.534.071Z" transform="translate(-227.719 -336.509)" fill="#2f2e41"/>
    <circle id="Ellipse_7" data-name="Ellipse 7" cx="11.155" cy="11.155" r="11.155" transform="translate(67.82 7.598)" fill="#ffb8b8"/>
    <path id="Path_19" data-name="Path 19" d="M347.88,367.992l-.105,0-17.5-.875a2.032,2.032,0,0,1-1.931-1.833l-2.391-23.311a10.524,10.524,0,0,1,13.318-11.2h0a10.206,10.206,0,0,1,3.745,1.926c12.311,10.111,8.342,28.429,6.832,33.8A2.036,2.036,0,0,1,347.88,367.992Z" transform="translate(-257.906 -296.985)" fill="#ff4d62"/>
    <path id="Path_20" data-name="Path 20" d="M321.768,397.845a4.9,4.9,0,0,1-1.439-.216,5,5,0,0,1-3.137-6.764,4.659,4.659,0,0,1,.219-.439L306.905,370.77a8.181,8.181,0,0,1,1.486-9.655l4.829-4.726,5.917,6.462-3.566,4.239,7.558,20.952a4.763,4.763,0,0,1,.631.219,5,5,0,0,1-1.992,9.583Z" transform="translate(-247.02 -311.186)" fill="#ffb8b8"/>
    <path id="Path_21" data-name="Path 21" d="M319.363,354.5,311.83,347.9a2.046,2.046,0,0,1-.189-2.884l8.564-9.767a5.631,5.631,0,0,1,9.148,6.462l-6.859,12.255a2.043,2.043,0,0,1-3.131.539Z" transform="translate(-249.848 -298.597)" fill="#ff4d62"/>
    <path id="Path_22" data-name="Path 22" d="M324.679,289.268c1.018.361,2.265.679,3.066-.069.782-.731.639-2.067.179-3.051a13.794,13.794,0,0,1-1.394-2.932,4.513,4.513,0,0,1,1.656-4.132,12.252,12.252,0,0,1,4.04-2.033l7.808-2.776c1.933-.687,4.016-1.494,5.1-3.3,1.565-2.616.134-6.356-2.433-7.883s-5.81-1.242-8.579-.169a44.314,44.314,0,0,1-4.573,1.83c-3.127.825-6.682.085-9.429,1.848-2.392,1.535-3.5,4.666-3.42,7.6a23.48,23.48,0,0,0,2.3,8.4,15.618,15.618,0,0,0,2.547,4.474A5.268,5.268,0,0,0,326,288.989Z" transform="translate(-252.883 -259.68)" fill="#2f2e41"/>
    <circle id="Ellipse_8" data-name="Ellipse 8" cx="9.083" cy="9.083" r="9.083" transform="translate(52.49)" fill="#2f2e41"/>
    <path id="Path_22-2" data-name="Path 22" d="M453.095,381.9l-.161-.022.607-4.416a2.58,2.58,0,0,0-2.2-2.907l-9.355-1.286a2.58,2.58,0,0,0-2.907,2.2l-3.33,24.225a2.58,2.58,0,0,0,2.2,2.907L447.3,403.9a2.58,2.58,0,0,0,2.907-2.2l2.291-16.666.161.022Z" transform="translate(-317.852 -320.388)" fill="#3f3d56"/>
    <path id="Path_23" data-name="Path 23" d="M452.36,377.484l-1.165-.16a.873.873,0,0,1-.965,1.081l-5.112-.7a.873.873,0,0,1-.637-1.3l-1.088-.15a1.838,1.838,0,0,0-2.071,1.57l-3.172,23.073a1.838,1.838,0,0,0,1.57,2.071l8.967,1.233a1.838,1.838,0,0,0,2.071-1.57h0l3.172-23.073a1.838,1.838,0,0,0-1.57-2.071Z" transform="translate(-319.17 -322.017)" fill="#fff"/>
    <circle id="Ellipse_9" data-name="Ellipse 9" cx="4.996" cy="4.996" r="4.996" transform="translate(121.835 64.631)" fill="#273fdb"/>
    <path id="Path_23-2" data-name="Path 23" d="M452.328,409.8a.518.518,0,0,1-.312-.1l-.006,0-1.174-.9a.522.522,0,0,1,.634-.828l.76.583,1.8-2.344a.522.522,0,0,1,.731-.1l-.011.015.011-.015a.522.522,0,0,1,.1.731l-2.114,2.757A.522.522,0,0,1,452.328,409.8Z" transform="translate(-325.992 -338.263)" fill="#fff"/>
    <path id="Path_24" data-name="Path 24" d="M563.848,641.844H182.676a.541.541,0,0,1,0-1.082H563.848a.541.541,0,1,1,0,1.081Z" transform="translate(-179.435 -466.409)" fill="#ccc"/>
  </g>
</svg>
