<svg xmlns="http://www.w3.org/2000/svg" width="30.457" height="29.158" viewBox="0 0 30.457 29.158"><path d="M29.89,10.541c-.225-.393-.464-.776-.722-1.145a2.707,2.707,0,1,0-3.707-3.706c-.37-.259-.752-.5-1.145-.722a4.061,4.061,0,1,1,5.574,5.574Zm.609,7.387a13.506,13.506,0,0,1-3.529,9.106l3.335,3.335a.663.663,0,0,1-.937.937l-3.335-3.335a13.512,13.512,0,0,1-18.21,0L4.488,31.306a.663.663,0,0,1-.937-.937l3.335-3.335A13.565,13.565,0,1,1,30.5,17.928ZM16.928,5.714A12.214,12.214,0,1,0,29.142,17.928,12.214,12.214,0,0,0,16.928,5.714Zm.679,14.832v6.2a.679.679,0,1,1-1.357,0v-6.2a2.685,2.685,0,0,1-1.643-4l-2.913-2.912a.663.663,0,1,1,.937-.937l2.913,2.912a2.685,2.685,0,0,1,1.385-.392,2.709,2.709,0,0,1,.679,5.332Zm-.679-3.975a1.357,1.357,0,1,0,1.357,1.357A1.358,1.358,0,0,0,16.928,16.571ZM6.071,4.357A2.707,2.707,0,0,0,4.689,9.4c-.259.37-.5.753-.722,1.145A4.061,4.061,0,1,1,9.541,4.967c-.394.225-.776.463-1.145.722A2.7,2.7,0,0,0,6.071,4.357Z" transform="translate(-1.7 -2.7)" fill="#ff4d62" stroke="#ff4d62" stroke-width="0.6" fill-rule="evenodd"/></svg>