<svg xmlns="http://www.w3.org/2000/svg" width="20.128" height="20.165" viewBox="0 0 20.128 20.165"><g transform="translate(-0.75 -1)"><path d="M11.553,21.165h-.844a2.179,2.179,0,0,1-1.528-.632L5.7,17.056a.72.72,0,0,0-.508-.212H2.911A2.163,2.163,0,0,1,.75,14.683v-7.2A2.163,2.163,0,0,1,2.911,5.321H5.195a.726.726,0,0,0,.51-.21L9.182,1.634A2.171,2.171,0,0,1,10.709,1h.844a2.163,2.163,0,0,1,2.161,2.161V19A2.163,2.163,0,0,1,11.553,21.165ZM2.911,6.761a.72.72,0,0,0-.72.72v7.2a.722.722,0,0,0,.72.72H5.195a2.179,2.179,0,0,1,1.528.632L10.2,19.513a.72.72,0,0,0,.508.212h.844a.722.722,0,0,0,.72-.72V3.161a.72.72,0,0,0-.72-.72h-.844a.72.72,0,0,0-.508.21L6.722,6.129a2.175,2.175,0,0,1-1.527.632ZM15.874,14.97a.722.722,0,0,1-.488-1.25,3.559,3.559,0,0,0,0-5.276.721.721,0,1,1,.977-1.06,5,5,0,0,1,0,7.4A.722.722,0,0,1,15.874,14.97Z" fill="#fba611"/><path d="M11.47,17.522a.72.72,0,0,1-.292-1.378,6.463,6.463,0,0,0,0-11.828A.72.72,0,1,1,11.763,3a7.905,7.905,0,0,1,0,14.463.725.725,0,0,1-.292.06Z" transform="translate(4.404 0.853)" fill="#fba611"/></g></svg>