<svg xmlns="http://www.w3.org/2000/svg" width="28.436" height="33.973" viewBox="0 0 28.436 33.973"><path d="M8.569,28.7h4.613a6.377,6.377,0,0,0,12.563,0h4.613a3.191,3.191,0,1,0,.266-6.377v-7.44a11.075,11.075,0,0,0-3.268-7.886,11.213,11.213,0,0,0-3.64-2.439v-.3a4.251,4.251,0,0,0-8.5,0v.314A11.16,11.16,0,0,0,8.3,14.879v7.44A3.191,3.191,0,1,0,8.569,28.7Zm10.894,3.188A4.251,4.251,0,0,1,15.35,28.7h8.226a4.251,4.251,0,0,1-4.113,3.188Zm0-29.759a2.126,2.126,0,0,1,2.094,1.8,10.968,10.968,0,0,0-2.094-.2,11.324,11.324,0,0,0-2.094.2,2.126,2.126,0,0,1,2.094-1.8ZM7.809,24.758a1.063,1.063,0,0,1,.76-.314h.8a1.063,1.063,0,0,0,1.063-1.063v-8.5a9.034,9.034,0,0,1,18.068,0v8.5a1.063,1.063,0,0,0,1.063,1.063h.8a1.063,1.063,0,1,1,0,2.126H8.569a1.067,1.067,0,0,1-.76-1.812ZM11.816,4.815,10.487,3.157A14.215,14.215,0,0,0,5.7,10.331l2.041.6a12.1,12.1,0,0,1,4.071-6.111ZM31.2,10.926l2.041-.6a14.215,14.215,0,0,0-4.783-7.174L27.126,4.815A12.1,12.1,0,0,1,31.2,10.926Z" transform="translate(-5.245)" fill="#ff4d62"/></svg>