<svg xmlns="http://www.w3.org/2000/svg" width="28" height="28" viewBox="0 0 28 28">
  <g id="certificate" transform="translate(-2 -2)">
    <path id="Path_125" data-name="Path 125" d="M6,2A4.013,4.013,0,0,0,2,6V26a4.013,4.013,0,0,0,4,4H16a1,1,0,0,0,0-2H6a1.974,1.974,0,0,1-2-2V6A1.974,1.974,0,0,1,6,4H20a1.974,1.974,0,0,1,2,2V8a1,1,0,0,0,2,0V6a4.013,4.013,0,0,0-4-4Z" fill="#273fdb"/>
    <path id="Path_126" data-name="Path 126" d="M63,90a6.992,6.992,0,0,0-3.988,12.74V109a1,1,0,0,0,1.557.83L63,108.2l2.432,1.627a1,1,0,0,0,1.557-.83v-6.26A6.992,6.992,0,0,0,63,90Zm0,2a5,5,0,1,1-5,5A4.985,4.985,0,0,1,63,92Zm-1.988,11.707a6.893,6.893,0,0,0,3.977,0v3.422l-1.432-.959a1,1,0,0,0-1.113,0l-1.432.959Z" transform="translate(-40 -80)" fill="#273fdb"/>
    <path id="Path_127" data-name="Path 127" d="M8,7A1,1,0,0,0,8,9h3a1,1,0,0,0,0-2Zm0,4a1,1,0,0,0,0,2h6a1,1,0,0,0,0-2Zm0,4a1,1,0,0,0,0,2h3a1,1,0,0,0,0-2Z" fill="#273fdb"/>
  </g>
</svg>
