<svg xmlns="http://www.w3.org/2000/svg" width="25.656" height="25.588" viewBox="0 0 25.656 25.588"><g transform="translate(0.871 0.75)"><path d="M12,0A11.933,11.933,0,0,0,1.357,17.456l.239.466a1.555,1.555,0,0,1,.114,1.193,23.633,23.633,0,0,0-.854,2.773c0,.477.137.75.649.739a21.8,21.8,0,0,0,2.675-.773,1.767,1.767,0,0,1,1.138.068c.33.159,1,.568,1.024.568A11.938,11.938,0,1,0,12,0Z" fill="none" stroke="#ff4d62" stroke-linecap="round" stroke-linejoin="round" stroke-width="1.5" fill-rule="evenodd"/><circle cx="1.193" cy="1.193" r="1.193" transform="translate(5.116 10.739)" fill="#fff" stroke="#fff" stroke-linecap="round" stroke-linejoin="round" stroke-width="1.5"/><circle cx="1.193" cy="1.193" r="1.193" transform="translate(10.807 10.739)" fill="#fff" stroke="#fff" stroke-linecap="round" stroke-linejoin="round" stroke-width="1.5"/><circle cx="1.193" cy="1.193" r="1.193" transform="translate(16.498 10.739)" fill="#fff" stroke="#fff" stroke-linecap="round" stroke-linejoin="round" stroke-width="1.5"/></g></svg>