<svg xmlns="http://www.w3.org/2000/svg" width="21.746" height="21.689" viewBox="0 0 21.746 21.689"><g transform="translate(0.852 0.75)"><path d="M10.057,0A10,10,0,0,0,1.138,14.629l.2.391a1.3,1.3,0,0,1,.1,1,19.805,19.805,0,0,0-.715,2.324c0,.4.114.629.544.619A18.273,18.273,0,0,0,3.5,18.314a1.48,1.48,0,0,1,.954.057c.277.133.839.476.859.476A10,10,0,1,0,10.057,0Z" transform="translate(0 0)" fill="none" stroke="#fba611" stroke-linecap="round" stroke-linejoin="round" stroke-width="1.5" fill-rule="evenodd"/><circle cx="1" cy="1" r="1" transform="translate(4.287 9)" fill="#fba611" stroke="#fba611" stroke-linecap="round" stroke-linejoin="round" stroke-width="1.5"/><circle cx="1" cy="1" r="1" transform="translate(9.057 9)" fill="#fba611" stroke="#fba611" stroke-linecap="round" stroke-linejoin="round" stroke-width="1.5"/><circle cx="1" cy="1" r="1" transform="translate(13.826 9)" fill="#fba611" stroke="#fba611" stroke-linecap="round" stroke-linejoin="round" stroke-width="1.5"/></g></svg>