<svg xmlns="http://www.w3.org/2000/svg" width="18.386" height="25.418" viewBox="0 0 18.386 25.418"><g transform="translate(-91.4 -27.622)"><path d="M100.593,28.222A8.593,8.593,0,0,0,92,36.815c0,4.746,8.593,15.276,8.593,15.276s8.593-10.53,8.593-15.276A8.593,8.593,0,0,0,100.593,28.222Zm0,14.8a6.206,6.206,0,1,1,6.206-6.206,6.206,6.206,0,0,1-6.206,6.206Z" fill="none" stroke="#273fdb" stroke-miterlimit="10" stroke-width="1.2"/><path d="M193.7,125.383h-2.051v-2.051a.438.438,0,0,0-.439-.438h-1.386a.438.438,0,0,0-.439.438v2.051h-2.051a.438.438,0,0,0-.438.439v1.386a.438.438,0,0,0,.439.439h2.051V129.7a.438.438,0,0,0,.439.438h1.386a.438.438,0,0,0,.439-.439v-2.05H193.7a.438.438,0,0,0,.438-.439v-1.386A.438.438,0,0,0,193.7,125.383Z" transform="translate(-89.922 -89.712)" fill="none" stroke="#273fdb" stroke-miterlimit="10" stroke-width="1.2"/></g></svg>