<svg xmlns="http://www.w3.org/2000/svg" width="29.454" height="29.454" viewBox="0 0 29.454 29.454">
  <path id="community" d="M5.208,5.208A4.208,4.208,0,1,1,11.985,8.54l-.089.067a4.208,4.208,0,0,1-6.688-3.4ZM9.415,3.1a2.1,2.1,0,1,0,2.1,2.1A2.1,2.1,0,0,0,9.415,3.1ZM19.469,8.54a4.2,4.2,0,1,1,.089.067ZM22.039,3.1a2.1,2.1,0,1,0,2.1,2.1A2.1,2.1,0,0,0,22.039,3.1ZM4.156,11.519H9.775a6.3,6.3,0,0,0-.359,2.1H4.156A1.052,1.052,0,0,0,3.1,14.675a4.73,4.73,0,0,0,1.763,3.86,5.927,5.927,0,0,0,1.764.956,5.261,5.261,0,0,0-1.118,1.826A7.853,7.853,0,0,1,3.55,20.176,6.829,6.829,0,0,1,1,14.675,3.156,3.156,0,0,1,4.156,11.519Zm7.926,0a4.209,4.209,0,1,0,3.645-2.1A4.188,4.188,0,0,0,12.082,11.519Zm3.173.053a2.107,2.107,0,1,1-1.632,2.051A2.11,2.11,0,0,1,15.255,11.573Zm11.332,6.963a5.925,5.925,0,0,1-1.764.956,5.26,5.26,0,0,1,1.118,1.826A7.856,7.856,0,0,0,27.9,20.176a6.83,6.83,0,0,0,2.55-5.5A3.156,3.156,0,0,0,27.3,11.519H21.68a6.3,6.3,0,0,1,.359,2.1H27.3a1.052,1.052,0,0,1,1.052,1.052A4.729,4.729,0,0,1,26.587,18.536Zm-5.6,1.4a3.153,3.153,0,0,1,3.156,3.156,6.83,6.83,0,0,1-2.55,5.5,9.324,9.324,0,0,1-5.865,1.862,9.324,9.324,0,0,1-5.865-1.862,6.829,6.829,0,0,1-2.55-5.5,3.153,3.153,0,0,1,3.156-3.156Zm0,2.1H10.467a1.052,1.052,0,0,0-1.052,1.052,4.729,4.729,0,0,0,1.763,3.86,7.238,7.238,0,0,0,4.548,1.4,7.238,7.238,0,0,0,4.548-1.4,4.729,4.729,0,0,0,1.763-3.86A1.052,1.052,0,0,0,20.987,22.039Z" transform="translate(-1 -1)" fill="#fff"/>
</svg>
