<svg xmlns="http://www.w3.org/2000/svg" width="28" height="20" viewBox="0 0 28 20">
  <g id="controller" transform="translate(0 -0.5)">
    <path id="Path_304" data-name="Path 304" d="M21,8a1,1,0,1,0-1-1A1,1,0,0,0,21,8Zm2,2a1,1,0,1,0-1-1A1,1,0,0,0,23,10Zm-1,1a1,1,0,1,1-1-1A1,1,0,0,1,22,11Zm-3-1a1,1,0,1,0-1-1A1,1,0,0,0,19,10Z" fill="#fba611" fill-rule="evenodd"/>
    <path id="Path_305" data-name="Path 305" d="M7,1.5A5.206,5.206,0,0,0,2.511,4.377,13.3,13.3,0,0,0,1,10.989c0,3.417.428,6,2.218,7.671a2.958,2.958,0,0,0,2.1.839,4.049,4.049,0,0,0,1.988-.627,10.936,10.936,0,0,0,2.943-2.855A4.682,4.682,0,0,1,14,13.987a4.682,4.682,0,0,1,3.748,2.031,10.938,10.938,0,0,0,2.943,2.855,4.048,4.048,0,0,0,1.988.627,2.958,2.958,0,0,0,2.1-.839C26.572,16.989,27,14.407,27,10.989a13.3,13.3,0,0,0-1.511-6.612A5.206,5.206,0,0,0,21,1.5a7.582,7.582,0,0,0-3.185.777A9.79,9.79,0,0,1,14,3a9.79,9.79,0,0,1-3.815-.722A7.582,7.582,0,0,0,7,1.5Z" fill="none" stroke="#fba611" stroke-linecap="round" stroke-linejoin="round" stroke-width="2"/>
    <path id="Path_306" data-name="Path 306" d="M7,7V9m0,2V9M7,9H5" fill="none" stroke="#fba611" stroke-linecap="round" stroke-linejoin="round" stroke-width="2"/>
  </g>
</svg>
