<svg xmlns="http://www.w3.org/2000/svg" width="20.049" height="20.022" viewBox="0 0 20.049 20.022"><g transform="translate(-2 -1.978)"><path d="M7.11,11.52,6.4,16.46c-.074.589.29,1.14,1.14,1.14l4.94-.71a1,1,0,0,0,.57-.28c.079-.079,7.83-7.823,7.9-7.91,3.442-3.8-1.975-8.989-5.65-5.65-.087.069-7.832,7.822-7.91,7.9a1,1,0,0,0-.28.57ZM18,4.02A1.974,1.974,0,0,1,20,6a1.932,1.932,0,0,1-.4,1.18L16.82,4.4A1.935,1.935,0,0,1,18,4.02ZM9.04,12.13,15.38,5.8,18.2,8.62l-6.33,6.34-3.3.47Z" fill="#f5f5f5"/><path d="M19,13.125V17a3,3,0,0,1-3,3H7a3,3,0,0,1-3-3V8A3,3,0,0,1,7,5h3.969a1,1,0,0,0,0-2H7A5.006,5.006,0,0,0,2,8v9a5.006,5.006,0,0,0,5,5h9a5.006,5.006,0,0,0,5-5V13.125a1,1,0,0,0-2,0Z" fill="#f5f5f5"/></g></svg>