<svg xmlns="http://www.w3.org/2000/svg" width="21" height="21" viewBox="0 0 21 21"><ellipse cx="0.347" cy="0.695" rx="0.347" ry="0.695" transform="translate(18.068 13.899)" fill="#fba611"/><path d="M23.667,16.942V15.5a2.8,2.8,0,0,0-5.6,0v6.183a3.383,3.383,0,1,1-6.767,0V19.4a1.634,1.634,0,0,0,1.167-1.563V16.9a5.84,5.84,0,0,0,4.2-5.6v-.233A1.639,1.639,0,0,0,15.5,9.5V6.867A1.869,1.869,0,0,0,13.633,5h-.467a.467.467,0,0,0,0,.933h.467a.933.933,0,0,1,.933.933V9.5A1.64,1.64,0,0,0,13.4,11.067V11.3a2.567,2.567,0,1,1-5.133,0v-.233A1.637,1.637,0,0,0,7.1,9.5V6.867a.935.935,0,0,1,.933-.933H8.5A.467.467,0,0,0,8.5,5H8.033A1.869,1.869,0,0,0,6.167,6.867V9.5A1.64,1.64,0,0,0,5,11.067V11.3a5.843,5.843,0,0,0,4.2,5.6v.936A1.637,1.637,0,0,0,10.367,19.4v2.287a4.317,4.317,0,1,0,8.633,0V15.5a1.867,1.867,0,0,1,3.733,0v1.442a2.8,2.8,0,1,0,.933,0ZM5.933,11.3v-.233a.7.7,0,1,1,1.4,0V11.3a3.5,3.5,0,1,0,7,0v-.233a.7.7,0,1,1,1.4,0V11.3a4.9,4.9,0,0,1-9.8,0Zm4.2,6.533v-.744a5.812,5.812,0,0,0,.7.044,5.752,5.752,0,0,0,.7-.044v.744a.7.7,0,0,1-1.4,0ZM23.2,21.567A1.867,1.867,0,1,1,25.067,19.7,1.869,1.869,0,0,1,23.2,21.567Z" transform="translate(-5 -5)" fill="#fba611"/></svg>