<svg xmlns="http://www.w3.org/2000/svg" width="22.544" height="22.544" viewBox="0 0 22.544 22.544"><path d="M17.206,27.361a.7.7,0,0,0,1,0l4.081-4.081,4.081,4.081a.7.7,0,0,0,1-1L23.28,22.284,27.361,18.2a.7.7,0,1,0-1-1l-4.081,4.081L18.2,17.206a.7.7,0,1,0-1,1l4.081,4.081-4.081,4.081A.7.7,0,0,0,17.206,27.361Z" transform="translate(-11.012 -11.012)" fill="#ff4d62"/><path d="M11.272,22.544A11.271,11.271,0,0,0,19.242,3.3,11.271,11.271,0,1,0,3.3,19.242,11.2,11.2,0,0,0,11.272,22.544ZM4.3,4.3A9.862,9.862,0,1,1,18.246,18.246,9.862,9.862,0,1,1,4.3,4.3Z" fill="#fff"/></svg>