<svg xmlns="http://www.w3.org/2000/svg" width="17.812" height="17.812" viewBox="0 0 17.812 17.812">
  <g id="Group_52" data-name="Group 52" transform="translate(-116.659 -44.332)">
    <path id="Path_65" data-name="Path 65" d="M18.066,2.568a2.769,2.769,0,0,1,0,3.916L14.743,9.807,7.838,16.713a3.462,3.462,0,0,1-1.608.911l-3.172.793a.692.692,0,0,1-.84-.84L3.011,14.4A3.462,3.462,0,0,1,3.921,12.8L14.149,2.568A2.769,2.769,0,0,1,18.066,2.568Zm-4.9,2.937L4.9,13.775a2.077,2.077,0,0,0-.546.965l-.513,2.053,2.053-.513a2.077,2.077,0,0,0,.965-.546l8.269-8.27-.677-.677Zm1.958-1.958-.979.979,1.958,1.958.98-.979a1.385,1.385,0,0,0-1.958-1.958Z" transform="translate(114.463 43.707)" fill="#273fdb"/>
    <path id="Rectangle_34" data-name="Rectangle 34" d="M2,0H2A2,2,0,0,1,4,2V4A0,0,0,0,1,4,4H0A0,0,0,0,1,0,4V2A2,2,0,0,1,2,0Z" transform="translate(130.511 45.464) rotate(45)" fill="none" stroke="#ff4d62" stroke-width="1.6"/>
  </g>
</svg>
