<svg xmlns="http://www.w3.org/2000/svg" width="25.572" height="18.366" viewBox="0 0 25.572 18.366">
  <g id="email" transform="translate(-221.91 -582.75)">
    <g id="Group_7" data-name="Group 7" transform="translate(222.16 583)">
      <path id="Path_25" data-name="Path 25" d="M23.591,28.546H5.641A3.566,3.566,0,0,1,2.08,24.984V14.241A3.566,3.566,0,0,1,5.641,10.68H23.591a3.566,3.566,0,0,1,3.561,3.561V24.984a3.566,3.566,0,0,1-3.561,3.561ZM5.641,11.937a2.3,2.3,0,0,0-2.3,2.3V24.984a2.3,2.3,0,0,0,2.3,2.3H23.591a2.3,2.3,0,0,0,2.3-2.3V14.241a2.3,2.3,0,0,0-2.3-2.3Z" transform="translate(-2.08 -10.68)" fill="#273fdb" stroke="#273fdb" stroke-width="0.5"/>
      <path id="Path_26" data-name="Path 26" d="M15.082,25.241a3.566,3.566,0,0,1-2.149-.716l-9.783-7.4a.628.628,0,1,1,.758-1l9.783,7.408a2.325,2.325,0,0,0,2.782,0l9.783-7.408a.628.628,0,1,1,.758,1l-9.783,7.4a3.566,3.566,0,0,1-2.149.716Z" transform="translate(-2.546 -13.761)" fill="#273fdb" stroke="#273fdb" stroke-width="0.5"/>
      <path id="Path_27" data-name="Path 27" d="M3.3,37.862a.628.628,0,0,1-.419-1.1l7.709-6.876a.629.629,0,0,1,.838.939L3.716,37.7A.612.612,0,0,1,3.3,37.862Zm23.321,0A.612.612,0,0,1,26.2,37.7L18.49,30.827a.629.629,0,1,1,.838-.939l7.705,6.876a.628.628,0,0,1-.419,1.1Z" transform="translate(-2.421 -21.747)" fill="#273fdb" stroke="#273fdb" stroke-width="0.5"/>
    </g>
  </g>
</svg>
