<svg xmlns="http://www.w3.org/2000/svg" width="22.38" height="22" viewBox="0 0 22.38 22"><g transform="translate(-0.727 -0.917)"><rect width="22" height="22" transform="translate(0.917 0.917)" fill="none"/><path d="M30.316,40.649a13.194,13.194,0,0,0-2.579-3.582,11.868,11.868,0,0,0-8.547-3.576,12.493,12.493,0,0,0-2.051.167A.746.746,0,0,0,16.71,34.9l9.445,10.39a.746.746,0,0,0,1.05.054,13.37,13.37,0,0,0,3.111-4.085A.746.746,0,0,0,30.316,40.649ZM12.282,32.243a.746.746,0,1,0-1.1,1l1.794,1.974a13.421,13.421,0,0,0-4.908,5.428.746.746,0,0,0,0,.606,13.191,13.191,0,0,0,2.579,3.581,12.06,12.06,0,0,0,13.4,2.565L26.1,49.659a.746.746,0,0,0,1.1-1ZM19.19,44.308a3.356,3.356,0,0,1-2.753-5.276l4.4,4.842a3.337,3.337,0,0,1-1.649.434Z" transform="translate(-7.273 -29.034)" fill="#ff4d62"/></g></svg>