<svg xmlns="http://www.w3.org/2000/svg" xmlns:xlink="http://www.w3.org/1999/xlink" width="24.5" height="24.5" viewBox="0 0 24.5 24.5"><defs><clipPath id="a"><path d="M24.5-47.5H0V-23H24.5Z" transform="translate(0 47.5)"/></clipPath></defs><g clip-path="url(#a)"><g transform="translate(2.138 1.646)"><path d="M-38.438-9.553a1.263,1.263,0,0,1,.335-1.793,1.263,1.263,0,0,1,1.792.335l3.386,4.937a6.609,6.609,0,0,1,.386-.576l-4.7-6.853A1.262,1.262,0,0,1-36.9-15.3a1.262,1.262,0,0,1,1.792.334l4.42,6.445c.164-.135.332-.269.506-.4l-5.124-7.473a1.263,1.263,0,0,1,.334-1.792,1.262,1.262,0,0,1,1.792.334l5.124,7.472c.188-.116.375-.216.561-.321l-4.788-6.984a1.262,1.262,0,0,1,.335-1.792,1.262,1.262,0,0,1,1.792.334l5.064,7.384.406.592.364.532A6.461,6.461,0,0,0-26-1.669a.631.631,0,0,0,.9.168,6.091,6.091,0,0,1,1.672-8.964l-.943-4.708a1.263,1.263,0,0,1,.889-1.593,1.263,1.263,0,0,1,1.592.889L-20.8-12.65a28.6,28.6,0,0,0,1.5,3.759A7.739,7.739,0,0,1-21.849.96,7.738,7.738,0,0,1-32.6-1.045c-.128-.187-.235-.369-.337-.552l-.028.02Z" transform="translate(38.682 19.73)" fill="#fba611"/></g><g transform="translate(19.342 0.672)"><path d="M.7-4.211H1.986A4.491,4.491,0,0,0-2.5-8.7v1.289a3.2,3.2,0,0,1,3.2,3.2" transform="translate(2.5 8.698)" fill="#fbc611"/></g><g transform="translate(16.118 1.934)"><path d="M2.658-6.053H3.947A6.455,6.455,0,0,0-2.5-12.5v1.289A5.164,5.164,0,0,1,2.658-6.053" transform="translate(2.5 12.5)" fill="#fbc611"/></g><g transform="translate(0.645 19.342)"><path d="M4.513-4.237V-5.526A3.046,3.046,0,0,1,1.289-8.75H0A4.407,4.407,0,0,0,4.513-4.237" transform="translate(0 8.75)" fill="#fbc611"/></g><g transform="translate(1.907 16.118)"><path d="M6.474-6.078V-7.368a5.6,5.6,0,0,1-5.185-5.185H0A6.134,6.134,0,0,0,6.474-6.078" transform="translate(0 12.552)" fill="#fbc611"/></g></g></svg>