<svg xmlns="http://www.w3.org/2000/svg" width="28.778" height="28.6" viewBox="0 0 28.778 28.6"><g transform="translate(-7.662 -7.7)"><path d="M13.489,33a.5.5,0,0,1-.315-.115A14.007,14.007,0,0,1,28.163,9.43a.5.5,0,0,1-.445.9A13,13,0,0,0,13.814,32.1a.507.507,0,0,1-.325.895Zm8.5,3a13.875,13.875,0,0,1-6.42-1.555.5.5,0,1,1,.46-.89A13,13,0,0,0,30.173,11.9a.5.5,0,1,1,.63-.775A14,14,0,0,1,21.988,36Z" transform="translate(0 0)" fill="#ff4d62" stroke="#ff4d62" stroke-width="0.6"/><path d="M29.218,35.983a.529.529,0,0,1-.347-.13,15.218,15.218,0,0,1-4.316-6.171A18.924,18.924,0,0,1,23,22.5a17.61,17.61,0,0,1,1.555-7.185A17.805,17.805,0,0,1,28.871,9.15a.532.532,0,0,1,.709.054.486.486,0,0,1-.014.685,16.845,16.845,0,0,0-4.083,5.817,16.7,16.7,0,0,0-1.446,6.8,17.9,17.9,0,0,0,1.451,6.8,14.292,14.292,0,0,0,4.078,5.812.487.487,0,0,1,.135.549A.518.518,0,0,1,29.218,35.983Z" transform="translate(-7.594 -0.501)" fill="#ff4d62" stroke="#ff4d62" stroke-width="0.6"/><path d="M36.5,35.944a.518.518,0,0,1-.482-.32.487.487,0,0,1,.135-.549,14.293,14.293,0,0,0,4.078-5.812,17.9,17.9,0,0,0,1.451-6.8,16.7,16.7,0,0,0-1.446-6.8A16.846,16.846,0,0,0,36.15,9.849a.49.49,0,0,1-.184-.485.507.507,0,0,1,.36-.383.532.532,0,0,1,.519.129,17.812,17.812,0,0,1,4.342,6.167,17.609,17.609,0,0,1,1.529,7.185,18.926,18.926,0,0,1-1.555,7.18,15.222,15.222,0,0,1-4.337,6.172A.529.529,0,0,1,36.5,35.944Z" transform="translate(-14.144 -0.463)" fill="#ff4d62" stroke="#ff4d62" stroke-width="0.6"/><path d="M35.5,28.748H8.5a.484.484,0,1,1,0-.968h27a.484.484,0,1,1,0,.968Zm-2-6.779h-23a.484.484,0,1,1,0-.968h23a.484.484,0,1,1,0,.968Zm0,13.559h-23a.484.484,0,1,1,0-.968h23a.484.484,0,1,1,0,.968Z" transform="translate(-0.011 -6.264)" fill="#ff4d62" stroke="#ff4d62" stroke-width="0.6"/><path d="M35.518,35.964a.509.509,0,0,1-.518-.5V9.5a.519.519,0,0,1,1.036,0V35.464A.509.509,0,0,1,35.518,35.964Z" transform="translate(-13.53 -0.482)" fill="#ff4d62" stroke="#ff4d62" stroke-width="0.6"/></g></svg>