<svg xmlns="http://www.w3.org/2000/svg" width="15.866" height="18.915" viewBox="0 0 15.866 18.915"><path d="M15.855,31.11h2.587A2.234,2.234,0,0,0,20.636,29.3l.959-3.463c.853-2.42.482-3.707.019-4.362A1.926,1.926,0,0,0,20,20.643h-2.12a8.369,8.369,0,0,0-.089-2.625c-.515-2.062-1.644-2.152-2.1-2.095a1.55,1.55,0,0,0-1.375,1.315,3.972,3.972,0,0,1-1.056,2.955,6.219,6.219,0,0,1-3.031,1.364.535.535,0,0,0,.151,1.06,7.251,7.251,0,0,0,3.637-1.667,5.006,5.006,0,0,0,1.369-3.683.63.63,0,0,1,.506-.285c.342.014.665.5.864,1.3a8.74,8.74,0,0,1-.009,2.813.535.535,0,0,0,.528.623H20a.859.859,0,0,1,.738.381c.209.3.613,1.221-.16,3.4,0,.012-.008.024-.011.036l-.97,3.5c0,.016-.008.031-.011.047a1.164,1.164,0,0,1-1.145.955H15.855c-1.97,0-4.6-.439-5.167-1.025a.535.535,0,0,0-.769.745C10.988,30.862,14.655,31.11,15.855,31.11ZM15.38,17.279Z" transform="translate(-6.24 -12.196)" fill="#273fdb"/><path d="M14.73,24.344h3.527a.535.535,0,0,0,.535-.535V14.7a.535.535,0,0,0-.535-.535H14.73a.535.535,0,0,0-.535.535v9.112A.535.535,0,0,0,14.73,24.344Zm2.992-1.071H15.265V15.232h2.457ZM23.89,8.083a.535.535,0,0,0,.535-.535V6.034a.535.535,0,1,0-1.071,0V7.547a.535.535,0,0,0,.535.535ZM21.132,9.648a.535.535,0,0,0,.277-.994l-1.3-.78a.535.535,0,1,0-.552.917l1.3.78A.533.533,0,0,0,21.132,9.648Zm5.517,0a.533.533,0,0,0,.275-.077l1.3-.78a.535.535,0,1,0-.552-.917l-1.3.781a.535.535,0,0,0,.277.994Z" transform="translate(-14.195 -5.498)" fill="#273fdb"/></svg>