<svg xmlns="http://www.w3.org/2000/svg" width="21.121" height="25" viewBox="0 0 21.121 25"><path d="M24.571,11.493A10.559,10.559,0,1,0,6.606,19.979l6.585,6.6a1.242,1.242,0,0,0,1.764,0l6.56-6.6A10.51,10.51,0,0,0,24.571,11.493Zm-4.8,6.734L14.06,23.942,8.345,18.227a8.063,8.063,0,0,1-2.323-6.485,8.162,8.162,0,0,1,3.59-6,8.038,8.038,0,0,1,8.9,0,8.162,8.162,0,0,1,3.59,5.976,8.063,8.063,0,0,1-2.323,6.51ZM14.06,6.983a5.591,5.591,0,1,0,5.591,5.591A5.591,5.591,0,0,0,14.06,6.983Zm0,8.7a3.106,3.106,0,1,1,3.106-3.106A3.106,3.106,0,0,1,14.06,15.68Z" transform="translate(-3.5 -1.943)" fill="#1fc678"/></svg>