<svg xmlns="http://www.w3.org/2000/svg" width="20.044" height="20" viewBox="0 0 20.044 20"><path d="M6.618.264a2.749,2.749,0,0,0-2.732,2.73v14.54a2.748,2.748,0,0,0,2.732,2.73h3.63a2.747,2.747,0,0,0,2.73-2.73V13.9a.909.909,0,1,0-1.818,0v3.637a.894.894,0,0,1-.912.912H6.618a.894.894,0,0,1-.912-.912V2.994a.894.894,0,0,1,.912-.912h3.63a.894.894,0,0,1,.912.912V6.631a.909.909,0,1,0,1.818,0V2.994a2.747,2.747,0,0,0-2.73-2.73ZM1.168,3.887a.909.909,0,0,0-.918.927v10.9a.909.909,0,0,0,1.818,0V4.814a.909.909,0,0,0-.893-.927H1.168ZM15.744,5.708q-.044,0-.087,0a.909.909,0,0,0-.545,1.557L17.2,9.354H8.484a.911.911,0,1,0,0,1.82h8.709l-2.08,2.079a.909.909,0,1,0,1.282,1.289L20.031,10.9a.909.909,0,0,0,0-1.282L16.394,5.987a.909.909,0,0,0-.65-.279Z" transform="translate(-0.251 -0.264)" fill="#fff" fill-rule="evenodd"/></svg>