<svg xmlns="http://www.w3.org/2000/svg" width="19.5" height="30.606" viewBox="0 0 19.5 30.606"><g transform="translate(-5.374 2.394)"><path d="M24.5,13.92a.887.887,0,1,0-1.773,0A8.135,8.135,0,0,1,14.75,22.2,8.135,8.135,0,0,1,6.773,13.92.887.887,0,1,0,5,13.92a9.987,9.987,0,0,0,8.864,10.124v4.6a.887.887,0,1,0,1.773,0v-4.6A9.987,9.987,0,0,0,24.5,13.92Z" transform="translate(0.374 -1.354)" fill="#273fdb"/><g transform="translate(10.124 -2.394)" fill="#ff4d62" stroke="#ff4d62" stroke-width="1.5"><rect width="10" height="21" rx="5" stroke="none"/><rect x="0.75" y="0.75" width="8.5" height="19.5" rx="4.25" fill="none"/></g></g></svg>