<svg xmlns="http://www.w3.org/2000/svg" width="24.207" height="26.7" viewBox="0 0 24.207 26.7"><g transform="translate(-6.398 -3.35)"><path d="M19.811,30.05a13.35,13.35,0,0,1-.174-26.7h.01A.75.75,0,0,1,20.3,4.576a11.618,11.618,0,0,0-2.448,7.169,11.784,11.784,0,0,0,11.778,11.77l.151-.007a.833.833,0,0,1,.743.45.814.814,0,0,1-.084.864A13.327,13.327,0,0,1,19.811,30.05ZM18.021,5a11.776,11.776,0,0,0,1.791,23.415,11.685,11.685,0,0,0,8.239-3.363A13.433,13.433,0,0,1,16.211,11.73,13.274,13.274,0,0,1,18.021,5Z" fill="#ff4d62"/><path d="M24.986,47.935a11,11,0,0,1-10.863-9.121.409.409,0,1,1,.806-.14,10.185,10.185,0,0,0,10.057,8.444.409.409,0,1,1,0,.818Z" transform="translate(-4.563 -20.68)" fill="#ff4d62"/><path d="M14.155,35.29a.437.437,0,0,1-.408-.42c-.009-.189-.014-.4-.014-.588a.415.415,0,0,1,.409-.417.405.405,0,0,1,.409.405c0,.179,0,.386.013.563a.429.429,0,0,1-.389.457Z" transform="translate(-4.336 -18.038)" fill="#ff4d62"/><circle cx="0.729" cy="0.729" r="0.729" transform="translate(20.946 10.162)" fill="#ff4d62"/><circle cx="0.729" cy="0.729" r="0.729" transform="translate(25.681 6.664)" fill="#ff4d62"/><circle cx="0.729" cy="0.729" r="0.729" transform="translate(24.097 13.191)" fill="#ff4d62"/></g></svg>