<svg xmlns="http://www.w3.org/2000/svg" width="32" height="26" viewBox="0 0 32 26">
  <g id="national-id" transform="translate(-98.632 -628.266)">
    <g id="profile" transform="translate(103.044 636.963)">
      <path id="Path_60" data-name="Path 60" d="M11.67,8.13A1.53,1.53,0,0,1,13.2,9.66v.51c0,2.011-1.9,4.08-5.1,4.08S3,12.181,3,10.17V9.66A1.53,1.53,0,0,1,4.53,8.13Zm0,1.02H4.53a.51.51,0,0,0-.51.51v.51c0,1.466,1.461,3.06,4.08,3.06s4.08-1.594,4.08-3.06V9.66A.51.51,0,0,0,11.67,9.15ZM8.1,1.5A2.805,2.805,0,1,1,5.3,4.305,2.805,2.805,0,0,1,8.1,1.5Zm0,1.02A1.785,1.785,0,1,0,9.885,4.305,1.785,1.785,0,0,0,8.1,2.52Z" transform="translate(-3 -1.5)" fill="#273fdb"/>
      <g id="Ellipse_26" data-name="Ellipse 26" transform="translate(2.331 0.007)" fill="none" stroke="#273fdb" stroke-width="1">
        <circle cx="2.769" cy="2.769" r="2.769" stroke="none"/>
        <circle cx="2.769" cy="2.769" r="2.269" fill="none"/>
      </g>
    </g>
    <rect id="Rectangle_89" data-name="Rectangle 89" width="11.855" height="2.444" rx="1.222" transform="translate(114.347 639.504)" fill="#273fdb"/>
    <rect id="Rectangle_90" data-name="Rectangle 90" width="11.855" height="2.444" rx="1.222" transform="translate(114.347 645.062)" fill="#273fdb"/>
    <g id="Rectangle_91" data-name="Rectangle 91" transform="translate(98.632 631.266)" fill="none" stroke="#273fdb" stroke-width="1.6">
      <rect width="32" height="23" rx="5" stroke="none"/>
      <rect x="0.8" y="0.8" width="30.4" height="21.4" rx="4.2" fill="none"/>
    </g>
    <g id="Path_304" data-name="Path 304" transform="translate(110.632 628.266)" fill="#f3f4fd">
      <path d="M 4 7.400000095367432 C 2.125230073928833 7.400000095367432 0.6000000238418579 5.874770164489746 0.6000000238418579 4 C 0.6000000238418579 2.125230073928833 2.125230073928833 0.6000000238418579 4 0.6000000238418579 C 5.874770164489746 0.6000000238418579 7.400000095367432 2.125230073928833 7.400000095367432 4 C 7.400000095367432 5.874770164489746 5.874770164489746 7.400000095367432 4 7.400000095367432 Z" stroke="none"/>
      <path d="M 4 1.199999809265137 C 2.456069946289062 1.199999809265137 1.199999809265137 2.456069946289062 1.199999809265137 4 C 1.199999809265137 5.543930053710938 2.456069946289062 6.800000190734863 4 6.800000190734863 C 5.543930053710938 6.800000190734863 6.800000190734863 5.543930053710938 6.800000190734863 4 C 6.800000190734863 2.456069946289062 5.543930053710938 1.199999809265137 4 1.199999809265137 M 4 0 C 6.209139823913574 0 8 1.790860176086426 8 4 C 8 6.209139823913574 6.209139823913574 8 4 8 C 1.790860176086426 8 0 6.209139823913574 0 4 C 0 1.790860176086426 1.790860176086426 0 4 0 Z" stroke="none" fill="#273fdb"/>
    </g>
  </g>
</svg>
