<svg xmlns="http://www.w3.org/2000/svg" width="19" height="22.027" viewBox="0 0 19 22.027"><g transform="translate(-199.5 -17)"><g transform="translate(200.5 18)"><path d="M0,11.787v-.219A3.6,3.6,0,0,1,.6,9.75,4.87,4.87,0,0,0,1.8,7.436c0-.666,0-1.342.058-2.009C2.155,2.218,5.327,0,8.461,0h.078c3.134,0,6.306,2.218,6.617,5.427.058.666,0,1.342.049,2.009A4.955,4.955,0,0,0,16.4,9.759a3.507,3.507,0,0,1,.6,1.809v.21a3.566,3.566,0,0,1-.844,2.39A4.5,4.5,0,0,1,13.3,15.538a45.074,45.074,0,0,1-9.615,0A4.554,4.554,0,0,1,.835,14.167,3.6,3.6,0,0,1,0,11.787Zm6.054,7.065a3.086,3.086,0,0,0,4.288.5,2.889,2.889,0,0,0,.524-.5" fill="none" stroke="#273fdb" stroke-linecap="round" stroke-linejoin="round" stroke-width="2" fill-rule="evenodd"/></g><path d="M1251.794,3018.309s2.679,4.149,6.091,0" transform="translate(-1045.839 -2982.153)" fill="none" stroke="#ff4d62" stroke-linecap="round" stroke-width="2"/></g></svg>