<svg xmlns="http://www.w3.org/2000/svg" width="18.948" height="18.059" viewBox="0 0 18.948 18.059">
  <g id="person" transform="translate(-16.4 -18)">
    <path id="Path_28" data-name="Path 28" d="M37.256,28.141A5.07,5.07,0,1,0,32.2,23.056,5.057,5.057,0,0,0,37.256,28.141Zm0-8.807a3.723,3.723,0,1,1-3.723,3.751A3.723,3.723,0,0,1,37.256,19.334Z" transform="translate(-11.41)" fill="#273fdb"/>
    <path id="Path_29" data-name="Path 29" d="M17.067,64.729H34.681a.676.676,0,0,0,.667-.667A6.379,6.379,0,0,0,28.986,57.7H22.762A6.379,6.379,0,0,0,16.4,64.062.676.676,0,0,0,17.067,64.729Zm5.7-5.7h6.223A5.011,5.011,0,0,1,33.959,63.4H17.789a5.011,5.011,0,0,1,4.973-4.362Z" transform="translate(0 -28.67)" fill="#273fdb"/>
  </g>
</svg>
