<svg xmlns="http://www.w3.org/2000/svg" width="20.626" height="20.626" viewBox="0 0 20.626 20.626">
  <path id="phone" d="M23.464,17.885l-1.842-1.842a2.948,2.948,0,0,0-4.134-.018,1.8,1.8,0,0,1-2.285.224,12.579,12.579,0,0,1-3.467-3.46,1.826,1.826,0,0,1,.238-2.293,2.948,2.948,0,0,0-.026-4.121L10.107,4.533a2.942,2.942,0,0,0-4.153,0l-.53.531C2.661,7.827,2.868,13.635,8.616,19.379,12.081,22.846,15.57,24.3,18.4,24.3a6.279,6.279,0,0,0,4.536-1.725l.531-.531A2.941,2.941,0,0,0,23.464,17.885ZM22.28,20.858l-.531.531C19.572,23.565,14.768,23.168,9.8,18.2S4.429,8.418,6.605,6.241l.527-.53a1.265,1.265,0,0,1,1.786,0L10.76,7.553a1.265,1.265,0,0,1,.018,1.766,3.5,3.5,0,0,0-.445,4.386,14.24,14.24,0,0,0,3.946,3.94,3.5,3.5,0,0,0,4.379-.433,1.266,1.266,0,0,1,1.773.011l1.842,1.842a1.264,1.264,0,0,1,.008,1.793Z" transform="translate(-3.698 -3.675)" fill="#273fdb"/>
</svg>
