<svg xmlns="http://www.w3.org/2000/svg" width="24.5" height="24.5" viewBox="0 0 24.5 24.5"><g transform="translate(-7.75 -7.75)"><path d="M20,8A12,12,0,1,0,32,20,12.008,12.008,0,0,0,20,8Zm0,1.091A10.906,10.906,0,0,1,30.449,23.132L27.2,19.887a1.71,1.71,0,0,0-2.408,0l-2.887,2.887L16.84,17.705a1.71,1.71,0,0,0-2.408,0L9.44,22.7A10.872,10.872,0,0,1,20,9.091Zm-4.364,9.2a.609.609,0,0,1,.433.182l5.069,5.069-3.16,3.16a.545.545,0,0,0,.771.771l6.818-6.818a.6.6,0,0,1,.865,0l3.61,3.61a10.906,10.906,0,0,1-20.234-.4L15.2,18.477a.609.609,0,0,1,.433-.182Z" fill="#a02fe2" stroke="#9d2ede" stroke-width="0.5"/><path d="M27.727,14a2.727,2.727,0,1,0,2.727,2.727A2.736,2.736,0,0,0,27.727,14Zm0,1.091a1.636,1.636,0,1,1-1.636,1.636A1.628,1.628,0,0,1,27.727,15.091Z" transform="translate(-7.727 -2.727)" fill="#a02fe2" stroke="#9d2ede" stroke-width="0.5"/></g></svg>