<svg xmlns="http://www.w3.org/2000/svg" width="19.379" height="19.391" viewBox="0 0 19.379 19.391"><path d="M22.567,10.351a2.111,2.111,0,0,1-.925,1.566l-3.759,2.534-.826,3.431a2.136,2.136,0,0,1-1.509,1.552,1.988,1.988,0,0,1-.584.071,2.091,2.091,0,0,1-1.5-.626L6.891,12.3a2.1,2.1,0,0,1-.555-2.079A2.136,2.136,0,0,1,7.887,8.713l3.431-.826,2.534-3.759A2.111,2.111,0,0,1,15.419,3.2a2.071,2.071,0,0,1,1.709.612l4.827,4.827a2.1,2.1,0,0,1,.612,1.709ZM3.4,21.371a.712.712,0,0,0,.5,1.21.668.668,0,0,0,.5-.214L7.01,19.757,9.667,17.1l-1-1Z" transform="translate(-3.199 -3.191)" fill="#273fdb"/></svg>