<svg xmlns="http://www.w3.org/2000/svg" width="14.571" height="22.923" viewBox="0 0 14.571 22.923"><path d="M13.846,23.9a5.37,5.37,0,0,1-4.683-5.433V9.326c0-2.383,1.041-3.768,2.5-4.049a3.122,3.122,0,0,1,3.747,3.008v9.367a1.041,1.041,0,0,1-1.041,1.041h0a1.041,1.041,0,0,1-1.041-1.041V8.285a1.041,1.041,0,0,0-2.082,0V18.568a3.206,3.206,0,0,0,2.5,3.185,3.122,3.122,0,0,0,3.747-3.06V8.514a5.37,5.37,0,0,0-4.683-5.433,5.2,5.2,0,0,0-5.724,5.2v9.367a1.041,1.041,0,0,1-1.041,1.041h0A1.041,1.041,0,0,1,5,17.652V8.535a7.452,7.452,0,0,1,6.328-7.473,7.285,7.285,0,0,1,8.243,7.223V18.693a5.2,5.2,0,0,1-5.724,5.2Z" transform="translate(-4.999 -0.999)" fill="#fba611"/></svg>