<svg xmlns="http://www.w3.org/2000/svg" width="17.548" height="20.892" viewBox="0 0 17.548 20.892"><path d="M19.973,5.6A31.953,31.953,0,0,1,13.854,3.11a2.171,2.171,0,0,0-2.277,0A31.967,31.967,0,0,1,5.459,5.6a2.171,2.171,0,0,0-1.516,2.14l.239,7.212c.533,3.623,4.333,6.645,6.551,8.123a3.568,3.568,0,0,0,3.966,0c2.218-1.478,6.019-4.5,6.558-8.205l.232-7.129A2.171,2.171,0,0,0,19.973,5.6Zm-.156,9.141c-.451,3.07-3.9,5.784-5.921,7.129a2.12,2.12,0,0,1-2.359,0c-2.018-1.345-5.47-4.059-5.914-7.046L5.39,7.7a.722.722,0,0,1,.5-.712,33.22,33.22,0,0,0,6.442-2.64.71.71,0,0,1,.764,0,33.208,33.208,0,0,0,6.443,2.64.723.723,0,0,1,.5.712ZM14,12.01a1.258,1.258,0,0,1-.557,1.027v1.972a.724.724,0,0,1-1.448,0V13.038a1.258,1.258,0,0,1-.557-1.027,1.281,1.281,0,1,1,2.561,0Z" transform="translate(-3.942 -2.787)" fill="#fba611"/></svg>