<svg xmlns="http://www.w3.org/2000/svg" width="57.573" height="71.983" viewBox="0 0 57.573 71.983"><g transform="translate(-178.213 -132)"><path d="M51.937,38.923a8.636,8.636,0,0,1,8.636,8.636v2.879c0,11.35-10.706,23.029-28.787,23.029S3,61.787,3,50.437V47.559a8.636,8.636,0,0,1,8.636-8.636Zm0,5.757h-40.3a2.879,2.879,0,0,0-2.879,2.879v2.879c0,8.277,8.245,17.272,23.029,17.272s23.029-9,23.029-17.272V47.559A2.879,2.879,0,0,0,51.937,44.68ZM31.787,1.5A15.833,15.833,0,1,1,15.954,17.333,15.833,15.833,0,0,1,31.787,1.5Zm0,5.757A10.075,10.075,0,1,0,41.862,17.333,10.075,10.075,0,0,0,31.787,7.257Z" transform="translate(175.213 130.517)" fill="#273fdb"/><g transform="translate(191 132)" fill="none" stroke="#ff4d62" stroke-width="6"><circle cx="16" cy="16" r="16" stroke="none"/><circle cx="16" cy="16" r="13" fill="none"/></g></g></svg>