<svg xmlns="http://www.w3.org/2000/svg" width="33.726" height="19.794" viewBox="0 0 33.726 19.794"><path d="M32.655,110.281a.962.962,0,0,0-.781-.659l-2.345-.341-.047-.009-1.666-.242-1.822-3.691a.981.981,0,0,0-1.752,0l-1.822,3.691-1.666.242-.047.009-1.931.281-1.975-4a1.148,1.148,0,0,0-2.059,0l-1.966,3.984-1.8-.262-.047-.009-1.666-.242-1.822-3.691a.981.981,0,0,0-1.752,0L3.863,109.03l-1.666.242-.047.009-2.345.341a.968.968,0,0,0-.781.659.968.968,0,0,0,.245.992l2.948,2.873-.7,4.057a.967.967,0,0,0,1.4,1.02l3.636-1.911,3.166,1.665-.733,4.274a1.148,1.148,0,0,0,1.666,1.21l5.036-2.647a.163.163,0,0,1,.153,0l5.036,2.647a1.148,1.148,0,0,0,1.666-1.21l-.722-4.21,3.291-1.73,3.636,1.911a.968.968,0,0,0,1.4-1.02l-.7-4.057,2.948-2.873A.962.962,0,0,0,32.655,110.281Zm-22.7,7.363-.054.313L7,116.433a.971.971,0,0,0-.434-.111H6.553a.971.971,0,0,0-.434.111l-3.622,1.9.692-4.033a.968.968,0,0,0-.278-.857l-2.93-2.856,2.36-.343.047-.009L4.013,110a.967.967,0,0,0,.729-.529l1.819-3.686,1.819,3.686a.967.967,0,0,0,.729.529l1.627.236.047.009,1.536.223-.094.19a.164.164,0,0,1-.123.09l-5.63.818a1.148,1.148,0,0,0-.636,1.958L9.909,117.5a.164.164,0,0,1,.047.145Zm11.559,5.934a.157.157,0,0,1-.173.012l-5.036-2.647a1.147,1.147,0,0,0-1.069,0L10.2,123.591a.164.164,0,0,1-.238-.173l.962-5.607a1.148,1.148,0,0,0-.33-1.016l-4.074-3.971a.164.164,0,0,1,.091-.28l5.63-.818a1.148,1.148,0,0,0,.864-.628l2.518-5.1a.164.164,0,0,1,.294,0l2.518,5.1a1.148,1.148,0,0,0,.865.628l5.63.818a.164.164,0,0,1,.091.28l-4.074,3.971a1.148,1.148,0,0,0-.33,1.016l.18,1.049v0l.781,4.554a.158.158,0,0,1-.065.16Zm7.255-10.131a.967.967,0,0,0-.278.857l.692,4.033-3.622-1.9a.972.972,0,0,0-.434-.111H25.11a.971.971,0,0,0-.434.111l-3.023,1.589-.065-.378a.164.164,0,0,1,.047-.145l4.074-3.971a1.148,1.148,0,0,0-.636-1.958l-5.63-.818a.164.164,0,0,1-.124-.09l-.085-.172,1.662-.242.047-.009L22.57,110a.967.967,0,0,0,.729-.529l1.819-3.686,1.819,3.686a.967.967,0,0,0,.729.529l1.627.236.047.009,2.36.343Z" transform="translate(1.023 -104.8)" fill="#ff4d62"/></svg>