<svg xmlns="http://www.w3.org/2000/svg" width="14.036" height="14.036" viewBox="0 0 14.036 14.036"><g transform="translate(-2 -2)"><path d="M10.422,13.931a3.513,3.513,0,0,0,3.509-3.509V5.509A3.513,3.513,0,0,0,10.422,2H5.509A3.513,3.513,0,0,0,2,5.509v4.913a3.513,3.513,0,0,0,3.509,3.509ZM3.4,10.422V5.509A2.108,2.108,0,0,1,5.509,3.4h4.913a2.108,2.108,0,0,1,2.105,2.105v4.913a2.108,2.108,0,0,1-2.105,2.105H5.509A2.108,2.108,0,0,1,3.4,10.422Z" fill="#fba611"/><path d="M15.829,7.7v4.211a4.215,4.215,0,0,1-4.211,4.211H7.408a.7.7,0,1,0,0,1.4h4.211a5.621,5.621,0,0,0,5.614-5.614V7.7a.7.7,0,0,0-1.4,0ZM8.544,11.5,12.1,8.217a.7.7,0,0,0-.953-1.031L8.172,9.935l-.9-1.241a.7.7,0,0,0-1.137.822L7.5,11.4a.7.7,0,0,0,1.045.1Z" transform="translate(-1.197 -1.491)" fill="#fba611"/></g></svg>