<svg xmlns="http://www.w3.org/2000/svg" width="24.597" height="21.553" viewBox="0 0 24.597 21.553"><path d="M37.677,84.79A1.677,1.677,0,0,1,36,83.113v-5.9a1.669,1.669,0,0,1,1.413-1.656l9.7-1.547-9.7-1.547A1.67,1.67,0,0,1,36,70.81v-5.9a1.677,1.677,0,0,1,2.33-1.545L59.45,72.284a1.878,1.878,0,0,1,0,3.459L38.329,84.657A1.677,1.677,0,0,1,37.677,84.79Zm0-20.436a.559.559,0,0,0-.307.094.552.552,0,0,0-.252.466v5.9a.559.559,0,0,0,.471.552l12.345,1.969a.69.69,0,0,1,0,1.364L37.589,76.665a.556.556,0,0,0-.471.552v5.9a.559.559,0,0,0,.777.517l21.121-8.916a.759.759,0,0,0,0-1.4L37.894,64.4A.573.573,0,0,0,37.677,64.354Z" transform="translate(-36 -63.237)" fill="#ff4d62"/></svg>