<svg xmlns="http://www.w3.org/2000/svg" width="25.643" height="25.643" viewBox="0 0 25.643 25.643"><g transform="translate(0.75 0.75)"><circle cx="3" cy="3" r="3" transform="translate(9.072 9.072)" fill="none" stroke="#fba611" stroke-linecap="round" stroke-linejoin="round" stroke-width="1.5"/><path d="M20.192,15.364a1.811,1.811,0,0,0,.362,2l.066.066a2.2,2.2,0,1,1-3.106,3.106l-.066-.066a1.825,1.825,0,0,0-3.095,1.295v.187a2.195,2.195,0,0,1-4.39,0v-.1a1.811,1.811,0,0,0-1.185-1.657,1.811,1.811,0,0,0-2,.362l-.066.066A2.2,2.2,0,0,1,3.61,17.515l.066-.066a1.825,1.825,0,0,0-1.295-3.095H2.195a2.195,2.195,0,1,1,0-4.39h.1A1.811,1.811,0,0,0,3.951,8.779a1.811,1.811,0,0,0-.362-2l-.066-.066A2.2,2.2,0,0,1,6.628,3.61l.066.066a1.811,1.811,0,0,0,2,.362h.088a1.811,1.811,0,0,0,1.1-1.657V2.195a2.195,2.195,0,0,1,4.39,0v.1a1.825,1.825,0,0,0,3.095,1.295l.066-.066a2.2,2.2,0,0,1,3.106,3.106l-.066.066a1.811,1.811,0,0,0-.362,2v.088a1.813,1.813,0,0,0,1.657,1.1h.187a2.195,2.195,0,0,1,0,4.39h-.1a1.811,1.811,0,0,0-1.657,1.1Z" fill="none" stroke="#fba611" stroke-linecap="round" stroke-linejoin="round" stroke-width="1.5" fill-rule="evenodd"/></g></svg>