<svg xmlns="http://www.w3.org/2000/svg" width="28.407" height="17.941" viewBox="0 0 28.407 17.941"><g transform="translate(221.271 249.098)"><g transform="translate(-221.271 -249.098)"><path d="M39.248,26.15l-6.317,4.074V28.99A3,3,0,0,0,29.941,26H14.99A3,3,0,0,0,12,28.99V40.951a3,3,0,0,0,2.99,2.99H29.941a3,3,0,0,0,2.99-2.99V39.717l6.317,4.074a.764.764,0,0,0,1.159-.635V26.748A.723.723,0,0,0,39.248,26.15Zm-7.812,14.8a1.5,1.5,0,0,1-1.5,1.5H14.99a1.5,1.5,0,0,1-1.5-1.5V28.99a1.5,1.5,0,0,1,1.5-1.5H29.941a1.5,1.5,0,0,1,1.5,1.5Zm7.475.86-5.98-3.85V31.98l5.98-3.85Z" transform="translate(-12 -26)" fill="#ff4d62"/></g></g></svg>