<svg xmlns="http://www.w3.org/2000/svg" width="27.926" height="30.568" viewBox="0 0 27.926 30.568"><path d="M47.723,2.643H45.286V1.586a1.586,1.586,0,1,0-3.171,0V2.643h-11.8V1.586a1.586,1.586,0,0,0-3.171,0V2.643H24.7a2.2,2.2,0,0,0-2.2,2.2V27.866a2.2,2.2,0,0,0,2.2,2.2H47.723a2.2,2.2,0,0,0,2.2-2.2V4.845a2.2,2.2,0,0,0-2.2-2.2ZM43,1.586a.7.7,0,0,1,1.409,0v3.1a.7.7,0,1,1-1.409,0Zm-14.976,0a.7.7,0,0,1,1.409,0v3.1a.7.7,0,0,1-1.409,0ZM49.045,27.866a1.323,1.323,0,0,1-1.321,1.321H24.7a1.323,1.323,0,0,1-1.321-1.321V9.16H49.045Zm0-19.588H23.381V4.845A1.323,1.323,0,0,1,24.7,3.524h2.437V4.685a1.586,1.586,0,0,0,3.171,0V3.524h11.8V4.685a1.586,1.586,0,1,0,3.171,0V3.524h2.437a1.323,1.323,0,0,1,1.321,1.321Zm-2.2,19.147a.44.44,0,1,0-.44-.44.44.44,0,0,0,.44.44ZM41.066,17.372a.44.44,0,1,0-.44.44A.44.44,0,0,0,41.066,17.372ZM33.159,20.7v1.936a3.953,3.953,0,1,0,7.907,0v-3.1a2.2,2.2,0,1,0-.881,0v3.1a3.072,3.072,0,1,1-6.145,0V20.7a4.117,4.117,0,0,0,3.67-4.087V13.29a.794.794,0,0,0-.793-.793h-.786a.881.881,0,1,0,0,.881h.7v3.23a3.23,3.23,0,0,1-6.46,0v-3.23h.714a.881.881,0,1,0,0-.881h-.8a.794.794,0,0,0-.793.793v3.318A4.117,4.117,0,0,0,33.159,20.7ZM39.3,17.372a1.321,1.321,0,1,1,1.321,1.321A1.321,1.321,0,0,1,39.3,17.372Zm4.015,10.054a.44.44,0,1,0-.44-.44.44.44,0,0,0,.44.44Zm1.762,0a.44.44,0,1,0-.44-.44.44.44,0,0,0,.44.44Z" transform="translate(-22.25 0.25)" fill="#273fdb" stroke="#273fdb" stroke-width="0.5"/></svg>