<svg xmlns="http://www.w3.org/2000/svg" width="18.253" height="22.737" viewBox="0 0 18.253 22.737"><g transform="translate(0.75 0.75)"><circle cx="5.279" cy="5.279" r="5.279" transform="translate(3.095 0)" fill="none" stroke="#fba611" stroke-linecap="round" stroke-linejoin="round" stroke-width="1.5"/><path d="M0,16.517a2.448,2.448,0,0,1,.243-1.072c.506-1.011,1.931-1.547,3.115-1.79a18.536,18.536,0,0,1,2.589-.364,27.663,27.663,0,0,1,4.844,0,18.758,18.758,0,0,1,2.589.364c1.183.243,2.609.728,3.115,1.79a2.508,2.508,0,0,1,0,2.154c-.506,1.062-1.931,1.547-3.115,1.78a17.369,17.369,0,0,1-2.589.374,28.531,28.531,0,0,1-3.944.061,4.485,4.485,0,0,1-.9-.061,17.032,17.032,0,0,1-2.579-.374C2.174,19.147.758,18.661.243,17.6A2.518,2.518,0,0,1,0,16.517Z" transform="translate(0 1.382)" fill="none" stroke="#fba611" stroke-linecap="round" stroke-linejoin="round" stroke-width="1.5" fill-rule="evenodd"/></g></svg>